{
  "accessors": [
    {
      "bufferView": 2,
      "componentType": 5126,
      "count": 8824,
      "max": [
        37.34425354003906,
        696.0,
        721.7999877929688
      ],
      "min": [
        -912.34423828125,
        489.0,
        -67.19999694824219
      ],
      "type": "VEC3"
    },
    {
      "bufferView": 2,
      "byteOffset": 105888,
      "componentType": 5126,
      "count": 8824,
      "max": [
        1.0,
        1.0,
        1.0
      ],
      "min": [
        -1.0,
        -1.0,
        -1.0
      ],
      "type": "VEC3"
    },
    {
      "bufferView": 1,
      "componentType": 5126,
      "count": 8824,
      "max": [
        8.25,
        9.071413040161133
      ],
      "min": [
        -19.200000762939453,
        -9.071413040161133
      ],
      "type": "VEC2"
    },
    {
      "bufferView": 0,
      "componentType": 5125,
      "count": 29880,
      "type": "SCALAR"
    },
    {
      "bufferView": 2,
      "byteOffset": 211776,
      "componentType": 5126,
      "count": 9992,
      "max": [
        65.0,
        520.0,
        659.5999755859375
      ],
      "min": [
        -915.0,
        0.0,
        -5.0
      ],
      "type": "VEC3"
    },
    {
      "bufferView": 2,
      "byteOffset": 331680,
      "componentType": 5126,
      "count": 9992,
      "max": [
        1.0,
        1.0,
        1.0
      ],
      "min": [
        -1.0,
        -1.0,
        -1.0
      ],
      "type": "VEC3"
    },
    {
      "bufferView": 1,
      "byteOffset": 70592,
      "componentType": 5126,
      "count": 9992,
      "max": [
        49.75,
        49.75
      ],
      "min": [
        -49.75,
        -49.75
      ],
      "type": "VEC2"
    },
    {
      "bufferView": 0,
      "byteOffset": 119520,
      "componentType": 5125,
      "count": 34068,
      "type": "SCALAR"
    },
    {
      "bufferView": 2,
      "byteOffset": 451584,
      "componentType": 5126,
      "count": 8816,
      "max": [
        100.29000091552734,
        515.5,
        659.5999755859375
      ],
      "min": [
        -974.7100219726563,
        -90.0,
        -2.700000047683716
      ],
      "type": "VEC3"
    },
    {
      "bufferView": 2,
      "byteOffset": 557376,
      "componentType": 5126,
      "count": 8816,
      "max": [
        1.0,
        1.0,
        1.0
      ],
      "min": [
        -1.0,
        -1.0,
        -1.0
      ],
      "type": "VEC3"
    },
    {
      "bufferView": 1,
      "byteOffset": 150528,
      "componentType": 5126,
      "count": 8816,
      "max": [
        300.0,
        300.0
      ],
      "min": [
        -300.0,
        -107.5
      ],
      "type": "VEC2"
    },
    {
      "bufferView": 0,
      "byteOffset": 255792,
      "componentType": 5125,
      "count": 28812,
      "type": "SCALAR"
    },
    {
      "bufferView": 2,
      "byteOffset": 663168,
      "componentType": 5126,
      "count": 3032,
      "max": [
        -810.0,
        100.0,
        25.0
      ],
      "min": [
        -940.0,
        0.0,
        -5.0
      ],
      "type": "VEC3"
    },
    {
      "bufferView": 2,
      "byteOffset": 699552,
      "componentType": 5126,
      "count": 3032,
      "max": [
        1.0,
        1.0,
        1.0
      ],
      "min": [
        -1.0,
        -1.0,
        -1.0
      ],
      "type": "VEC3"
    },
    {
      "bufferView": 1,
      "byteOffset": 221056,
      "componentType": 5126,
      "count": 3032,
      "max": [
        13.0,
        12.0
      ],
      "min": [
        -13.0,
        -6.5
      ],
      "type": "VEC2"
    },
    {
      "bufferView": 0,
      "byteOffset": 371040,
      "componentType": 5125,
      "count": 11808,
      "type": "SCALAR"
    },
    {
      "bufferView": 2,
      "byteOffset": 735936,
      "componentType": 5126,
      "count": 8598,
      "max": [
        -363.2099914550781,
        253.23223876953125,
        686.1000366210938
      ],
      "min": [
        -511.2099914550781,
        163.23223876953125,
        -31.500024795532227
      ],
      "type": "VEC3"
    },
    {
      "bufferView": 2,
      "byteOffset": 839112,
      "componentType": 5126,
      "count": 8598,
      "max": [
        1.0,
        1.0,
        1.0
      ],
      "min": [
        -1.0,
        -1.0,
        -1.0
      ],
      "type": "VEC3"
    },
    {
      "bufferView": 1,
      "byteOffset": 245312,
      "componentType": 5126,
      "count": 8598,
      "max": [
        50000.015625,
        9.00369930267334
      ],
      "min": [
        -50000.00390625,
        -50000.015625
      ],
      "type": "VEC2"
    },
    {
      "bufferView": 0,
      "byteOffset": 418272,
      "componentType": 5125,
      "count": 33534,
      "type": "SCALAR"
    },
    {
      "bufferView": 2,
      "byteOffset": 942288,
      "componentType": 5126,
      "count": 2866,
      "max": [
        -462.2099914550781,
        253.23223876953125,
        686.1000366210938
      ],
      "min": [
        -506.2099914550781,
        163.23223876953125,
        663.5999755859375
      ],
      "type": "VEC3"
    },
    {
      "bufferView": 2,
      "byteOffset": 976680,
      "componentType": 5126,
      "count": 2866,
      "max": [
        1.0,
        1.0,
        1.0
      ],
      "min": [
        -1.0,
        -1.0,
        -1.0
      ],
      "type": "VEC3"
    },
    {
      "bufferView": 1,
      "byteOffset": 314096,
      "componentType": 5126,
      "count": 2866,
      "max": [
        50000.015625,
        9.00369930267334
      ],
      "min": [
        -50000.00390625,
        -50000.015625
      ],
      "type": "VEC2"
    },
    {
      "bufferView": 0,
      "byteOffset": 552408,
      "componentType": 5125,
      "count": 11178,
      "type": "SCALAR"
    },
    {
      "bufferView": 2,
      "byteOffset": 1011072,
      "componentType": 5126,
      "count": 9208,
      "max": [
        -45.209999084472656,
        513.2322387695313,
        652.7999877929688
      ],
      "min": [
        -979.7100219726563,
        -100.0,
        -20.0
      ],
      "type": "VEC3"
    },
    {
      "bufferView": 2,
      "byteOffset": 1121568,
      "componentType": 5126,
      "count": 9208,
      "max": [
        1.0,
        1.0,
        1.0
      ],
      "min": [
        -1.0,
        -1.0,
        -1.0
      ],
      "type": "VEC3"
    },
    {
      "bufferView": 1,
      "byteOffset": 337024,
      "componentType": 5126,
      "count": 9208,
      "max": [
        65.0,
        30.0
      ],
      "min": [
        -65.0,
        -30.0
      ],
      "type": "VEC2"
    },
    {
      "bufferView": 0,
      "byteOffset": 597120,
      "componentType": 5125,
      "count": 36576,
      "type": "SCALAR"
    },
    {
      "bufferView": 2,
      "byteOffset": 1232064,
      "componentType": 5126,
      "count": 3864,
      "max": [
        105.29000091552734,
        513.2322387695313,
        674.5999755859375
      ],
      "min": [
        -974.7100219726563,
        -100.0,
        -20.0
      ],
      "type": "VEC3"
    },
    {
      "bufferView": 2,
      "byteOffset": 1278432,
      "componentType": 5126,
      "count": 3864,
      "max": [
        1.0,
        1.0,
        1.0
      ],
      "min": [
        -1.0,
        -1.0,
        -1.0
      ],
      "type": "VEC3"
    },
    {
      "bufferView": 1,
      "byteOffset": 410688,
      "componentType": 5126,
      "count": 3864,
      "max": [
        65.0,
        30.0
      ],
      "min": [
        -65.0,
        -30.0
      ],
      "type": "VEC2"
    },
    {
      "bufferView": 0,
      "byteOffset": 743424,
      "componentType": 5125,
      "count": 11808,
      "type": "SCALAR"
    }
  ],
  "asset": {
    "extras": {
      "author": "txiong (https://sketchfab.com/txiong)",
      "license": "CC-BY-4.0 (http://creativecommons.org/licenses/by/4.0/)",
      "source": "https://sketchfab.com/3d-models/conveyor-v5-49b52e06a19e4db4a7c6cf152700e67b",
      "title": "Conveyor V5"
    },
    "generator": "Sketchfab-12.59.0",
    "version": "2.0"
  },
  "bufferViews": [
    {
      "buffer": 0,
      "byteLength": 790656,
      "name": "floatBufferViews",
      "target": 34963
    },
    {
      "buffer": 0,
      "byteLength": 441600,
      "byteOffset": 790656,
      "byteStride": 8,
      "name": "floatBufferViews",
      "target": 34962
    },
    {
      "buffer": 0,
      "byteLength": 1324800,
      "byteOffset": 1232256,
      "byteStride": 12,
      "name": "floatBufferViews",
      "target": 34962
    }
  ],
  "buffers": [
    {
      "byteLength": 2557056,
      "uri": "scene.bin"
    }
  ],
  "materials": [
    {
      "doubleSided": true,
      "name": "Opaque178178178",
      "pbrMetallicRoughness": {
        "baseColorFactor": [
          0.01499303941969177,
          0.011195077220229865,
          0.011195077220229865,
          1.0
        ],
        "roughnessFactor": 0.6
      }
    },
    {
      "doubleSided": true,
      "name": "Opaque555",
      "pbrMetallicRoughness": {
        "baseColorFactor": [
          0.0,
          0.0,
          0.0,
          1.0
        ],
        "metallicFactor": 0.0,
        "roughnessFactor": 0.6
      }
    },
    {
      "doubleSided": true,
      "name": "Opaque9211177",
      "pbrMetallicRoughness": {
        "baseColorFactor": [
          0.0,
          0.0,
          0.0,
          1.0
        ],
        "roughnessFactor": 0.6
      }
    },
    {
      "doubleSided": true,
      "name": "Steel_-_Satin",
      "pbrMetallicRoughness": {
        "baseColorFactor": [
          0.35153259950043925,
          0.31398871337571754,
          0.31398871337571754,
          1.0
        ],
        "metallicFactor": 0.5,
        "roughnessFactor": 0.6
      }
    }
  ],
  "meshes": [
    {
      "name": "Object_0",
      "primitives": [
        {
          "attributes": {
            "NORMAL": 1,
            "POSITION": 0,
            "TEXCOORD_0": 2
          },
          "indices": 3,
          "material": 0,
          "mode": 4
        }
      ]
    },
    {
      "name": "Object_1",
      "primitives": [
        {
          "attributes": {
            "NORMAL": 5,
            "POSITION": 4,
            "TEXCOORD_0": 6
          },
          "indices": 7,
          "material": 2,
          "mode": 4
        }
      ]
    },
    {
      "name": "Object_2",
      "primitives": [
        {
          "attributes": {
            "NORMAL": 9,
            "POSITION": 8,
            "TEXCOORD_0": 10
          },
          "indices": 11,
          "material": 2,
          "mode": 4
        }
      ]
    },
    {
      "name": "Object_3",
      "primitives": [
        {
          "attributes": {
            "NORMAL": 13,
            "POSITION": 12,
            "TEXCOORD_0": 14
          },
          "indices": 15,
          "material": 2,
          "mode": 4
        }
      ]
    },
    {
      "name": "Object_4",
      "primitives": [
        {
          "attributes": {
            "NORMAL": 17,
            "POSITION": 16,
            "TEXCOORD_0": 18
          },
          "indices": 19,
          "material": 1,
          "mode": 4
        }
      ]
    },
    {
      "name": "Object_5",
      "primitives": [
        {
          "attributes": {
            "NORMAL": 21,
            "POSITION": 20,
            "TEXCOORD_0": 22
          },
          "indices": 23,
          "material": 1,
          "mode": 4
        }
      ]
    },
    {
      "name": "Object_6",
      "primitives": [
        {
          "attributes": {
            "NORMAL": 25,
            "POSITION": 24,
            "TEXCOORD_0": 26
          },
          "indices": 27,
          "material": 3,
          "mode": 4
        }
      ]
    },
    {
      "name": "Object_7",
      "primitives": [
        {
          "attributes": {
            "NORMAL": 29,
            "POSITION": 28,
            "TEXCOORD_0": 30
          },
          "indices": 31,
          "material": 3,
          "mode": 4
        }
      ]
    }
  ],
  "nodes": [
    {
      "children": [
        1
      ],
      "matrix": [
        1.0,
        0.0,
        0.0,
        0.0,
        0.0,
        2.220446049250313e-16,
        -1.0,
        0.0,
        0.0,
        1.0,
        2.220446049250313e-16,
        0.0,
        0.0,
        0.0,
        0.0,
        1.0
      ],
      "name": "Sketchfab_model"
    },
    {
      "children": [
        2,
        3,
        4,
        5,
        6,
        7,
        8,
        9
      ],
      "name": "Conveyor v5.obj.cleaner.materialmerger.gles"
    },
    {
      "mesh": 0,
      "name": "Object_2"
    },
    {
      "mesh": 1,
      "name": "Object_3"
    },
    {
      "mesh": 2,
      "name": "Object_4"
    },
    {
      "mesh": 3,
      "name": "Object_5"
    },
    {
      "mesh": 4,
      "name": "Object_6"
    },
    {
      "mesh": 5,
      "name": "Object_7"
    },
    {
      "mesh": 6,
      "name": "Object_8"
    },
    {
      "mesh": 7,
      "name": "Object_9"
    }
  ],
  "scene": 0,
  "scenes": [
    {
      "name": "Sketchfab_Scene",
      "nodes": [
        0
      ]
    }
  ]
}
