<svg xmlns="http://www.w3.org/2000/svg" xmlns:xlink="http://www.w3.org/1999/xlink" width="73.5" height="133.5" viewBox="0 0 100% 100%">
  <defs>
    <clipPath id="clip-aoi">
      <rect width="100%" height="100%"/>
    </clipPath>
  </defs>
  <g id="aoi" clip-path="url(#clip-aoi)">
    <g id="Group_2361" data-name="Group 2361" transform="translate(1.5 1.5)">
      <g id="Path_4103" data-name="Path 4103" transform="translate(-34.606 -21.241)" fill="#4e7bff">
        <path d="M 104.1738586425781 151.8405456542969 L 35.64456939697266 151.8405456542969 C 35.57032012939453 151.8405456542969 35.48400115966797 151.7238311767578 35.48400115966797 151.5733489990234 L 35.48400115966797 117.0357131958008 C 35.48400115966797 116.8849411010742 35.57032012939453 116.7679977416992 35.64456939697266 116.7679977416992 L 104.1738586425781 116.7679977416992 C 104.2481079101562 116.7679977416992 104.3344268798828 116.8849411010742 104.3344268798828 117.0357131958008 L 104.3344268798828 151.5733489990234 C 104.3344268798828 151.7238311767578 104.2481079101562 151.8405456542969 104.1738586425781 151.8405456542969 Z M 35.80514907836914 117.3024597167969 L 35.80514907836914 117.7024612426758 L 35.80514907836914 150.9061431884766 L 35.80514907836914 151.3061370849609 L 36.20515060424805 151.3061370849609 L 103.6132431030273 151.3061370849609 L 104.0132369995117 151.3061370849609 L 104.0132369995117 150.9061431884766 L 104.0132369995117 117.7024612426758 L 104.0132369995117 117.3024597167969 L 103.6132431030273 117.3024597167969 L 36.20515060424805 117.3024597167969 L 35.80514907836914 117.3024597167969 Z" stroke="none"/>
        <path d="M 104.1738586425781 152.2405395507812 L 35.64456939697266 152.2405395507812 C 35.33470916748047 152.2405395507812 35.08399963378906 151.9416198730469 35.08399963378906 151.5733489990234 L 35.08399963378906 117.0357131958008 C 35.08399963378906 116.6668930053711 35.33470916748047 116.3680038452148 35.64456939697266 116.3680038452148 L 104.1738586425781 116.3680038452148 C 104.4836730957031 116.3680038452148 104.7344284057617 116.6668930053711 104.7344284057617 117.0357131958008 L 104.7344284057617 151.5733489990234 C 104.7344284057617 151.9416198730469 104.4836730957031 152.2405395507812 104.1738586425781 152.2405395507812 Z M 36.20515060424805 117.7024612426758 L 36.20515060424805 150.9061431884766 L 103.6132431030273 150.9061431884766 L 103.6132431030273 117.7024612426758 L 36.20515060424805 117.7024612426758 Z" stroke="none" fill="#4e7bff"/>
      </g>
      <g id="Path_4321" data-name="Path 4321" transform="translate(-46.627 -125.003)" fill="#4e7bff">
        <path d="M 112.0095748901367 163.3238983154297 L 88.74028015136719 163.3238983154297 C 88.70024871826172 163.2673797607422 88.63370513916016 163.1145629882812 88.63370513916016 162.876708984375 L 88.63370513916016 138.4264831542969 C 88.63370513916016 138.1882934570312 88.70027160644531 138.0352935791016 88.74032592773438 137.9787139892578 L 112.0095291137695 137.9787139892578 C 112.0495834350586 138.0352935791016 112.1161727905273 138.1882934570312 112.1161727905273 138.4264831542969 L 112.1161727905273 162.876708984375 C 112.1161727905273 163.1145629882812 112.0496139526367 163.2673797607422 112.0095748901367 163.3238983154297 Z M 89.05646514892578 138.8730010986328 L 89.05646514892578 139.2730102539062 L 89.05646514892578 162.0296630859375 L 89.05646514892578 162.4296722412109 L 89.45645904541016 162.4296722412109 L 111.3741683959961 162.4296722412109 L 111.774169921875 162.4296722412109 L 111.774169921875 162.0296630859375 L 111.774169921875 139.2730102539062 L 111.774169921875 138.8730010986328 L 111.3741683959961 138.8730010986328 L 89.45645904541016 138.8730010986328 L 89.05646514892578 138.8730010986328 Z" stroke="none"/>
        <path d="M 111.7147979736328 162.9238891601562 C 111.7156753540039 162.9089813232422 111.7161712646484 162.8932495117188 111.7161712646484 162.876708984375 L 111.7161712646484 162.8296661376953 L 89.03369903564453 162.8296661376953 L 89.03369903564453 162.876708984375 C 89.03369903564453 162.8932342529297 89.03419494628906 162.9089813232422 89.03507232666016 162.9238891601562 L 111.7147979736328 162.9238891601562 M 111.7161712646484 138.4730072021484 L 111.7161712646484 138.4264831542969 C 111.7161712646484 138.4097442626953 111.7156677246094 138.393798828125 111.7147750854492 138.3787231445312 L 89.03510284423828 138.3787231445312 C 89.03420257568359 138.393798828125 89.03369903564453 138.4097442626953 89.03369903564453 138.4264831542969 L 89.03369903564453 138.4730072021484 L 111.7161712646484 138.4730072021484 M 112.0654678344727 163.7238922119141 L 88.68439483642578 163.7238922119141 C 88.43523406982422 163.7238922119141 88.23370361328125 163.3443908691406 88.23370361328125 162.876708984375 L 88.23370361328125 138.4264831542969 C 88.23370361328125 137.9582977294922 88.43523406982422 137.5787200927734 88.68439483642578 137.5787200927734 L 112.0654678344727 137.5787200927734 C 112.3146133422852 137.5787200927734 112.5161743164062 137.9582977294922 112.5161743164062 138.4264831542969 L 112.5161743164062 162.876708984375 C 112.5161743164062 163.3443908691406 112.3146133422852 163.7238922119141 112.0654678344727 163.7238922119141 Z M 89.45645904541016 139.2730102539062 L 89.45645904541016 162.0296630859375 L 111.3741683959961 162.0296630859375 L 111.3741683959961 139.2730102539062 L 89.45645904541016 139.2730102539062 Z" stroke="none" fill="#4e7bff"/>
      </g>
      <g id="Path_4322" data-name="Path 4322" transform="translate(-11.469 -66.946)" fill="#4e7bff">
        <path d="M 81.07970428466797 162.4767150878906 L 12.46534538269043 162.4767150878906 C 12.42570972442627 162.4347076416016 12.34727573394775 162.290771484375 12.34727573394775 162.0569915771484 L 12.34727573394775 138.3990173339844 C 12.34727573394775 138.1649169921875 12.42573356628418 138.0207977294922 12.46538543701172 137.9787292480469 L 81.07965850830078 137.9787292480469 C 81.11930847167969 138.0207977294922 81.19777679443359 138.1649169921875 81.19777679443359 138.3990173339844 L 81.19777679443359 162.0569915771484 C 81.19777679443359 162.290771484375 81.11933135986328 162.4347076416016 81.07970428466797 162.4767150878906 Z M 12.5199556350708 138.818115234375 L 12.5199556350708 139.2181091308594 L 12.5199556350708 161.2373962402344 L 12.5199556350708 161.6373901367188 L 12.91995620727539 161.6373901367188 L 80.62508392333984 161.6373901367188 L 81.02508544921875 161.6373901367188 L 81.02508544921875 161.2373962402344 L 81.02508544921875 139.2181091308594 L 81.02508544921875 138.818115234375 L 80.62508392333984 138.818115234375 L 12.91995620727539 138.818115234375 L 12.5199556350708 138.818115234375 Z" stroke="none"/>
        <path d="M 80.79745483398438 162.0767211914062 C 80.79766082763672 162.0703125 80.79777526855469 162.0637359619141 80.79777526855469 162.0569915771484 L 80.79777526855469 162.0373992919922 L 12.74727535247803 162.0373992919922 L 12.74727535247803 162.0569915771484 C 12.74727535247803 162.0637359619141 12.74738788604736 162.0703125 12.74759960174561 162.0767211914062 L 80.79745483398438 162.0767211914062 M 80.79777526855469 138.4181060791016 L 80.79777526855469 138.3990173339844 C 80.79777526855469 138.3920745849609 80.79766082763672 138.3853149414062 80.79743194580078 138.3787231445312 L 12.7476167678833 138.3787231445312 C 12.74739456176758 138.3853149414062 12.74727535247803 138.3920745849609 12.74727535247803 138.3990173339844 L 12.74727535247803 138.4181060791016 L 80.79777526855469 138.4181060791016 M 81.11142730712891 162.8767242431641 L 12.43362617492676 162.8767242431641 C 12.16479587554932 162.8767242431641 11.94727611541748 162.509521484375 11.94727611541748 162.0569915771484 L 11.94727611541748 138.3990173339844 C 11.94727611541748 137.9459991455078 12.16479587554932 137.5787200927734 12.43362617492676 137.5787200927734 L 81.11142730712891 137.5787200927734 C 81.3802490234375 137.5787200927734 81.5977783203125 137.9459991455078 81.5977783203125 138.3990173339844 L 81.5977783203125 162.0569915771484 C 81.5977783203125 162.509521484375 81.3802490234375 162.8767242431641 81.11142730712891 162.8767242431641 Z M 12.91995620727539 139.2181091308594 L 12.91995620727539 161.2373962402344 L 80.62508392333984 161.2373962402344 L 80.62508392333984 139.2181091308594 L 12.91995620727539 139.2181091308594 Z" stroke="none" fill="#4e7bff"/>
      </g>
      <path id="Path_4105" data-name="Path 4105" d="M117.889,152.241a.612.612,0,0,1-.532-.667V117.035a.546.546,0,1,1,1.065,0v34.538a.612.612,0,0,1-.532.667" transform="translate(-82.586 -21.241)" fill="#4e7bff" stroke="#4e7bff" stroke-width="0.4"/>
      <path id="Path_4106" data-name="Path 4106" d="M140.744,152.408H127.772a.612.612,0,0,1-.532-.668V136.554a.612.612,0,0,1,.532-.667h12.971a.612.612,0,0,1,.532.667v15.187a.612.612,0,0,1-.532.668M128.3,151.074h11.906V137.221H128.3Z" transform="translate(-81.706 -31.084)" fill="#4e7bff" stroke="#4e7bff" stroke-width="0.3"/>
      <path id="Path_4339" data-name="Path 4339" d="M140.744,152.408H127.772a.612.612,0,0,1-.532-.668V136.554a.612.612,0,0,1,.532-.667h12.971a.612.612,0,0,1,.532.667v15.187a.612.612,0,0,1-.532.668M128.3,151.074h11.906V137.221H128.3Z" transform="translate(-116.714 -31.084)" fill="#4e7bff" stroke="#4e7bff" stroke-width="0.3"/>
      <g id="Path_4338" data-name="Path 4338" transform="translate(-90.783 -105.427)" fill="#4e7bff">
        <path d="M 130.3134155273438 152.0084991455078 L 127.7724380493164 152.0084991455078 C 127.7339935302734 152.0084991455078 127.6399993896484 151.9146728515625 127.6399993896484 151.7407684326172 L 127.6399993896484 136.5542449951172 C 127.6399993896484 136.3806304931641 127.7339935302734 136.2869720458984 127.7724380493164 136.2869720458984 L 130.3134155273438 136.2869720458984 C 130.3518218994141 136.2869720458984 130.4457702636719 136.3806304931641 130.4457702636719 136.5542449951172 L 130.4457702636719 151.7407684326172 C 130.4457702636719 151.9146728515625 130.3518218994141 152.0084991455078 130.3134155273438 152.0084991455078 Z M 127.9048309326172 136.8214874267578 L 127.9048309326172 137.2214813232422 L 127.9048309326172 151.0735015869141 L 127.9048309326172 151.4735107421875 L 128.3048248291016 151.4735107421875 L 129.7088623046875 151.4735107421875 L 130.1088714599609 151.4735107421875 L 130.1088714599609 151.0735015869141 L 130.1088714599609 137.2214813232422 L 130.1088714599609 136.8214874267578 L 129.7088623046875 136.8214874267578 L 128.3048248291016 136.8214874267578 L 127.9048309326172 136.8214874267578 Z" stroke="none"/>
        <path d="M 130.3134155273438 152.4084930419922 L 127.7724380493164 152.4084930419922 C 127.4785079956055 152.4084930419922 127.2399978637695 152.1095886230469 127.2399978637695 151.7407684326172 L 127.2399978637695 136.5542449951172 C 127.2399978637695 136.1859436035156 127.4785079956055 135.8869781494141 127.7724380493164 135.8869781494141 L 130.3134155273438 135.8869781494141 C 130.6073150634766 135.8869781494141 130.8457641601562 136.1859436035156 130.8457641601562 136.5542449951172 L 130.8457641601562 151.7407684326172 C 130.8457641601562 152.1095886230469 130.6073150634766 152.4084930419922 130.3134155273438 152.4084930419922 Z M 128.3048248291016 137.2214813232422 L 128.3048248291016 151.0735015869141 L 129.7088623046875 151.0735015869141 L 129.7088623046875 137.2214813232422 L 128.3048248291016 137.2214813232422 Z" stroke="none" fill="#4e7bff"/>
      </g>
      <path id="Path_4107" data-name="Path 4107" d="M109.848,146.714H103.5c-.924,0-1.672-.2-1.672-.437v-9.515c0-.241.748-.437,1.672-.437h6.35c.923,0,1.672.2,1.672.437v9.515c0,.242-.749.438-1.672.438m-5.772-.875h4.955v-9.077h-4.955Z" transform="translate(-71.217 -28.236)" fill="none" stroke="#4e7bff" stroke-width="1"/>
      <g id="Path_4337" data-name="Path 4337" transform="translate(-71.644 -105.427)" fill="#4e7bff">
        <path d="M 104.1244125366211 152.0084991455078 L 101.5834045410156 152.0084991455078 C 101.5449829101562 152.0084991455078 101.4510116577148 151.9146728515625 101.4510116577148 151.7407684326172 L 101.4510116577148 136.5542449951172 C 101.4510116577148 136.3806304931641 101.5449829101562 136.2869720458984 101.5834045410156 136.2869720458984 L 104.1244125366211 136.2869720458984 C 104.162841796875 136.2869720458984 104.2568206787109 136.3806304931641 104.2568206787109 136.5542449951172 L 104.2568206787109 151.7407684326172 C 104.2568206787109 151.9146728515625 104.162841796875 152.0084991455078 104.1244125366211 152.0084991455078 Z M 101.9725646972656 136.8214874267578 L 101.9725646972656 137.2214813232422 L 101.9725646972656 151.0735015869141 L 101.9725646972656 151.4735107421875 L 102.37255859375 151.4735107421875 L 103.5920333862305 151.4735107421875 L 103.9920349121094 151.4735107421875 L 103.9920349121094 151.0735015869141 L 103.9920349121094 137.2214813232422 L 103.9920349121094 136.8214874267578 L 103.5920333862305 136.8214874267578 L 102.37255859375 136.8214874267578 L 101.9725646972656 136.8214874267578 Z" stroke="none"/>
        <path d="M 104.1244125366211 152.4084930419922 L 101.5834045410156 152.4084930419922 C 101.2891311645508 152.4084930419922 101.0510101318359 152.1095886230469 101.0510101318359 151.7407684326172 L 101.0510101318359 136.5542449951172 C 101.0510101318359 136.1859436035156 101.2891311645508 135.8869781494141 101.5834045410156 135.8869781494141 L 104.1244125366211 135.8869781494141 C 104.4183197021484 135.8869781494141 104.6568222045898 136.1859436035156 104.6568222045898 136.5542449951172 L 104.6568222045898 151.7407684326172 C 104.6568222045898 152.1095886230469 104.4183197021484 152.4084930419922 104.1244125366211 152.4084930419922 Z M 102.37255859375 137.2214813232422 L 102.37255859375 151.0735015869141 L 103.5920333862305 151.0735015869141 L 103.5920333862305 137.2214813232422 L 102.37255859375 137.2214813232422 Z" stroke="none" fill="#4e7bff"/>
      </g>
      <g id="Group_2354" data-name="Group 2354" transform="translate(0.478)">
        <g id="Group_2353" data-name="Group 2353" transform="translate(44.261 17.17)">
          <g id="Path_4324" data-name="Path 4324" transform="translate(17.669 0) rotate(90)" fill="#4e7bff">
            <path d="M 12.99267864227295 17.26913833618164 L 0.8492990136146545 17.26913833618164 C 0.5791990160942078 17.26913833618164 0.3999990224838257 17.1219482421875 0.3999990224838257 17.02458953857422 L 0.3999990224838257 0.6445489525794983 C 0.3999990224838257 0.5448389649391174 0.5750290155410767 0.3999989628791809 0.8492990136146545 0.3999989628791809 L 12.99267864227295 0.3999989628791809 C 13.26694869995117 0.3999989628791809 13.44197940826416 0.5448389649391174 13.44197940826416 0.6445489525794983 L 13.44197940826416 17.02458953857422 C 13.44197940826416 17.1219482421875 13.26277923583984 17.26913833618164 12.99267864227295 17.26913833618164 Z M 1.298599004745483 0.8890990018844604 L 1.298599004745483 1.289098978042603 L 1.298599004745483 16.38003921508789 L 1.298599004745483 16.78003883361816 L 1.698598980903625 16.78003883361816 L 12.14337921142578 16.78003883361816 L 12.54337882995605 16.78003883361816 L 12.54337882995605 16.38003921508789 L 12.54337882995605 1.289098978042603 L 12.54337882995605 0.8890990018844604 L 12.14337921142578 0.8890990018844604 L 1.698598980903625 0.8890990018844604 L 1.298599004745483 0.8890990018844604 Z" stroke="none"/>
            <path d="M 12.99267864227295 16.86913871765137 C 13.01108169555664 16.86913871765137 13.02756881713867 16.86765289306641 13.04197883605957 16.8653621673584 L 13.04197883605957 0.8037574291229248 C 13.02756500244141 0.8014771342277527 13.01107978820801 0.7999989986419678 12.99267864227295 0.7999989986419678 L 12.94337940216064 0.7999989986419678 L 12.94337940216064 16.86913871765137 L 12.99267864227295 16.86913871765137 M 0.8985990285873413 16.86913871765137 L 0.8985990285873413 0.7999989986419678 L 0.8492990136146545 0.7999989986419678 C 0.8308979272842407 0.7999989986419678 0.8144126534461975 0.8014771342277527 0.7999990582466125 0.8037574291229248 L 0.7999990582466125 16.8653621673584 C 0.8144090175628662 16.86765289306641 0.8308960199356079 16.86913871765137 0.8492990136146545 16.86913871765137 L 0.8985990285873413 16.86913871765137 M 12.99267864227295 17.66913986206055 L 0.8492990136146545 17.66913986206055 C 0.3798490464687347 17.66913986206055 -9.634399020796991e-07 17.38037872314453 -9.634399020796991e-07 17.02458953857422 L -9.634399020796991e-07 0.6445489525794983 C -9.634399020796991e-07 0.2882789671421051 0.3798490464687347 -1.022644028125796e-06 0.8492990136146545 -1.022644028125796e-06 L 12.99267864227295 -1.022644028125796e-06 C 13.46212863922119 -1.022644028125796e-06 13.84197902679443 0.2882789671421051 13.84197902679443 0.6445489525794983 L 13.84197902679443 17.02458953857422 C 13.84197902679443 17.38037872314453 13.46212863922119 17.66913986206055 12.99267864227295 17.66913986206055 Z M 1.698598980903625 1.289098978042603 L 1.698598980903625 16.38003921508789 L 12.14337921142578 16.38003921508789 L 12.14337921142578 1.289098978042603 L 1.698598980903625 1.289098978042603 Z" stroke="none" fill="#4e7bff"/>
          </g>
          <path id="Path_4325" data-name="Path 4325" d="M3.044,2.857H.259A.266.266,0,0,1,0,2.585V.272A.266.266,0,0,1,.259,0H3.044A.266.266,0,0,1,3.3.272V2.585a.266.266,0,0,1-.259.272M.518,2.314H2.785V.544H.518Z" transform="translate(14.751 15.23) rotate(90)" fill="#4e7bff" stroke="#4e7bff" stroke-width="0.3"/>
          <path id="Path_4326" data-name="Path 4326" d="M3.044,3.031H.259A.266.266,0,0,1,0,2.759V.272A.266.266,0,0,1,.259,0H3.044A.266.266,0,0,1,3.3.272V2.759a.266.266,0,0,1-.259.272M.518,2.487H2.785V.544H.518Z" transform="translate(5.947 15.23) rotate(90)" fill="#4e7bff" stroke="#4e7bff" stroke-width="0.3"/>
        </g>
        <g id="Group_2352" data-name="Group 2352" transform="translate(34.826)">
          <g id="Path_4327" data-name="Path 4327" transform="translate(16.248 -111.711)" fill="#4e7bff">
            <path d="M 17.83998489379883 182.1102600097656 L -14.19757461547852 182.1102600097656 L -16.48728370666504 182.1102600097656 C -16.70300483703613 182.1102600097656 -16.88525390625 181.8494262695312 -16.88525390625 181.5406951904297 L -16.88525390625 112.6804275512695 C -16.88525390625 112.3716659545898 -16.70300483703613 112.1108169555664 -16.48728370666504 112.1108169555664 L 17.83998489379883 112.1108169555664 C 18.05570602416992 112.1108169555664 18.23795509338379 112.3716659545898 18.23795509338379 112.6804275512695 L 18.23795509338379 181.5406951904297 C 18.23795509338379 181.8494262695312 18.05570602416992 182.1102600097656 17.83998489379883 182.1102600097656 Z M -16.08931350708008 113.2506561279297 L -16.08931350708008 113.6506576538086 L -16.08931350708008 180.5711364746094 L -16.08931350708008 180.9711303710938 L -15.6893138885498 180.9711303710938 L 17.04141616821289 180.9711303710938 L 17.44141578674316 180.9711303710938 L 17.44141578674316 180.5711364746094 L 17.44141578674316 113.6506576538086 L 17.44141578674316 113.2506561279297 L 17.04141616821289 113.2506561279297 L -15.6893138885498 113.2506561279297 L -16.08931350708008 113.2506561279297 Z" stroke="none"/>
            <path d="M 17.79250907897949 181.7102508544922 C 17.81245803833008 181.6817932128906 17.83795547485352 181.6227569580078 17.83795547485352 181.5406951904297 L 17.83795547485352 181.3711395263672 L -16.48525428771973 181.3711395263672 L -16.48525428771973 181.5406951904297 C -16.48525428771973 181.6227569580078 -16.45975875854492 181.6817932128906 -16.43980979919434 181.7102508544922 L 17.79250907897949 181.7102508544922 M 17.83795547485352 112.8506546020508 L 17.83795547485352 112.6804275512695 C 17.83795547485352 112.5983276367188 17.81245994567871 112.5392684936523 17.79251098632812 112.5108184814453 L -16.43981742858887 112.5108184814453 C -16.45976257324219 112.5392761230469 -16.48525428771973 112.5983352661133 -16.48525428771973 112.6804275512695 L -16.48525428771973 112.8506546020508 L 17.83795547485352 112.8506546020508 M 17.83998489379883 182.51025390625 L -16.48728370666504 182.51025390625 C -16.92777442932129 182.51025390625 -17.28525352478027 182.0758819580078 -17.28525352478027 181.5406951904297 L -17.28525352478027 112.6804275512695 C -17.28525352478027 112.1451568603516 -16.92777442932129 111.7108154296875 -16.48728370666504 111.7108154296875 L 17.83998489379883 111.7108154296875 C 18.28046607971191 111.7108154296875 18.6379566192627 112.1451568603516 18.6379566192627 112.6804275512695 L 18.6379566192627 181.5406951904297 C 18.6379566192627 182.0758819580078 18.28046607971191 182.51025390625 17.83998489379883 182.51025390625 Z M -15.6893138885498 113.6506576538086 L -15.6893138885498 180.5711364746094 L 17.04141616821289 180.5711364746094 L 17.04141616821289 113.6506576538086 L -15.6893138885498 113.6506576538086 Z" stroke="none" fill="#4e7bff"/>
          </g>
        </g>
        <g id="Group_2351" data-name="Group 2351">
          <g id="Path_4330" data-name="Path 4330" transform="translate(15.982 -111.711)" fill="#4e7bff">
            <path d="M 17.95918083190918 182.1102600097656 L -12.93118953704834 182.1102600097656 L -15.19347953796387 182.1102600097656 C -15.40039920806885 182.1102600097656 -15.58189964294434 181.8441009521484 -15.58189964294434 181.5406951904297 L -15.58189964294434 112.6804275512695 C -15.58189964294434 112.3769836425781 -15.40039920806885 112.1108169555664 -15.19347953796387 112.1108169555664 L 17.95918083190918 112.1108169555664 C 18.16610145568848 112.1108169555664 18.34760093688965 112.3769836425781 18.34760093688965 112.6804275512695 L 18.34760093688965 181.5406951904297 C 18.34760093688965 181.8441009521484 18.16610145568848 182.1102600097656 17.95918083190918 182.1102600097656 Z M -14.8050594329834 113.2506561279297 L -14.8050594329834 113.6506576538086 L -14.8050594329834 180.5711364746094 L -14.8050594329834 180.9711303710938 L -14.40505981445312 180.9711303710938 L 17.17018127441406 180.9711303710938 L 17.57018089294434 180.9711303710938 L 17.57018089294434 180.5711364746094 L 17.57018089294434 113.6506576538086 L 17.57018089294434 113.2506561279297 L 17.17018127441406 113.2506561279297 L -14.40505981445312 113.2506561279297 L -14.8050594329834 113.2506561279297 Z" stroke="none"/>
            <path d="M 17.90431022644043 181.7102508544922 C 17.92376327514648 181.6802673339844 17.94760131835938 181.6212005615234 17.94760131835938 181.5406951904297 L 17.94760131835938 181.3711395263672 L -15.18189907073975 181.3711395263672 L -15.18189907073975 181.5406951904297 C -15.18189907073975 181.6212005615234 -15.15806198120117 181.6802673339844 -15.13860893249512 181.7102508544922 L 17.90431022644043 181.7102508544922 M 17.94760131835938 112.8506546020508 L 17.94760131835938 112.6804275512695 C 17.94760131835938 112.5998840332031 17.92376899719238 112.5408096313477 17.90431213378906 112.5108184814453 L -15.13861083984375 112.5108184814453 C -15.15806674957275 112.5408096313477 -15.18189907073975 112.5998840332031 -15.18189907073975 112.6804275512695 L -15.18189907073975 112.8506546020508 L 17.94760131835938 112.8506546020508 M 17.95918083190918 182.51025390625 L -15.19347953796387 182.51025390625 C -15.62868976593018 182.51025390625 -15.98189926147461 182.0758819580078 -15.98189926147461 181.5406951904297 L -15.98189926147461 112.6804275512695 C -15.98189926147461 112.1451568603516 -15.62868976593018 111.7108154296875 -15.19347953796387 111.7108154296875 L 17.95918083190918 111.7108154296875 C 18.39439010620117 111.7108154296875 18.74760055541992 112.1451568603516 18.74760055541992 112.6804275512695 L 18.74760055541992 181.5406951904297 C 18.74760055541992 182.0758819580078 18.39439010620117 182.51025390625 17.95918083190918 182.51025390625 Z M -14.40505981445312 113.6506576538086 L -14.40505981445312 180.5711364746094 L 17.17018127441406 180.5711364746094 L 17.17018127441406 113.6506576538086 L -14.40505981445312 113.6506576538086 Z" stroke="none" fill="#4e7bff"/>
          </g>
          <g id="Path_4332" data-name="Path 4332" transform="translate(-7.713 -111.106)" fill="#4e7bff">
            <path d="M 34.2335090637207 174.3066558837891 L 13.87518978118896 174.3066558837891 C 13.75940036773682 174.3066558837891 13.58434963226318 174.0794677734375 13.58434963226318 173.737060546875 L 13.58434963226318 119.2735061645508 C 13.58434963226318 118.9311065673828 13.75940036773682 118.7039413452148 13.87518978118896 118.7039413452148 L 34.2335090637207 118.7039413452148 C 34.34930038452148 118.7039413452148 34.52436065673828 118.9311065673828 34.52436065673828 119.2735061645508 L 34.52436065673828 173.737060546875 C 34.52436065673828 174.0794677734375 34.34930038452148 174.3066558837891 34.2335090637207 174.3066558837891 Z M 14.16656017303467 119.8438262939453 L 14.16656017303467 120.2438278198242 L 14.16656017303467 172.7674713134766 L 14.16656017303467 173.16748046875 L 14.56655979156494 173.16748046875 L 33.54265975952148 173.16748046875 L 33.94266128540039 173.16748046875 L 33.94266128540039 172.7674713134766 L 33.94266128540039 120.2438278198242 L 33.94266128540039 119.8438262939453 L 33.54265975952148 119.8438262939453 L 14.56655979156494 119.8438262939453 L 14.16656017303467 119.8438262939453 Z" stroke="none"/>
            <path d="M 34.09625244140625 173.9066619873047 C 34.11059188842773 173.8682556152344 34.12435913085938 173.8112640380859 34.12435913085938 173.737060546875 L 34.12435913085938 173.5674743652344 L 13.98435020446777 173.5674743652344 L 13.98435020446777 173.737060546875 C 13.98435020446777 173.811279296875 13.99816513061523 173.8682708740234 14.01254653930664 173.9066619873047 L 34.09625244140625 173.9066619873047 M 34.12435913085938 119.4438247680664 L 34.12435913085938 119.2735061645508 C 34.12435913085938 119.1993179321289 34.11059951782227 119.142333984375 34.09626770019531 119.1039428710938 L 14.01253795623779 119.1039428710938 C 13.99816036224365 119.1423263549805 13.98435020446777 119.1993026733398 13.98435020446777 119.2735061645508 L 13.98435020446777 119.4438247680664 L 34.12435913085938 119.4438247680664 M 34.2335090637207 174.7066497802734 L 13.87518978118896 174.7066497802734 C 13.49384021759033 174.7066497802734 13.18435001373291 174.2722473144531 13.18435001373291 173.737060546875 L 13.18435001373291 119.2735061645508 C 13.18435001373291 118.7383041381836 13.49384021759033 118.3039474487305 13.87518978118896 118.3039474487305 L 34.2335090637207 118.3039474487305 C 34.61537170410156 118.3039474487305 34.92435836791992 118.7383041381836 34.92435836791992 119.2735061645508 L 34.92435836791992 173.737060546875 C 34.92435836791992 174.2722473144531 34.61537170410156 174.7066497802734 34.2335090637207 174.7066497802734 Z M 14.56655979156494 120.2438278198242 L 14.56655979156494 172.7674713134766 L 33.54265975952148 172.7674713134766 L 33.54265975952148 120.2438278198242 L 14.56655979156494 120.2438278198242 Z" stroke="none" fill="#4e7bff"/>
          </g>
        </g>
      </g>
      <g id="Path_4345" data-name="Path 4345" transform="translate(185.531 -11.947) rotate(90)" fill="#4e7bff">
        <path d="M 142.0325469970703 186.7177276611328 L 12.86199760437012 186.7177276611328 C 11.99921417236328 186.7177276611328 11.29728126525879 186.0584106445312 11.29728126525879 185.2480010986328 L 11.29728126525879 115.3992156982422 C 11.29728126525879 114.5884857177734 11.99921417236328 113.9289169311523 12.86199760437012 113.9289169311523 L 142.0325469970703 113.9289169311523 C 142.8953399658203 113.9289169311523 143.5972747802734 114.5884857177734 143.5972747802734 115.3992156982422 L 143.5972747802734 185.2480010986328 C 143.5972747802734 186.0584106445312 142.8953399658203 186.7177276611328 142.0325469970703 186.7177276611328 Z M 14.42671394348145 183.7783966064453 L 140.4678192138672 183.7783966064453 L 140.4678192138672 116.8683013916016 L 14.42671394348145 116.8683013916016 L 14.42671394348145 183.7783966064453 Z" stroke="none"/>
        <path d="M 142.0325469970703 186.0677337646484 C 142.5381469726562 186.0677337646484 142.9472808837891 185.7005310058594 142.9472808837891 185.2480010986328 L 142.9472808837891 115.3992233276367 C 142.9472808837891 114.9462051391602 142.5381469726562 114.5789184570312 142.0325469970703 114.5789184570312 L 12.8620080947876 114.5789184570312 C 12.35638999938965 114.5789184570312 11.94728088378906 114.9462051391602 11.94728088378906 115.3992233276367 L 11.94728088378906 185.2480010986328 C 11.94728088378906 185.7005310058594 12.35638999938965 186.0677337646484 12.8620080947876 186.0677337646484 L 142.0325469970703 186.0677337646484 M 13.77671718597412 116.2183151245117 L 141.1178131103516 116.2183151245117 L 141.1178131103516 184.4284057617188 L 13.77671718597412 184.4284057617188 L 13.77671718597412 116.2183151245117 M 142.0325469970703 187.3677368164062 L 12.8620080947876 187.3677368164062 C 11.64080810546875 187.3677368164062 10.6472806930542 186.4168243408203 10.6472806930542 185.2480010986328 L 10.6472806930542 115.3992233276367 C 10.6472806930542 114.2300796508789 11.64080810546875 113.2789154052734 12.8620080947876 113.2789154052734 L 142.0325469970703 113.2789154052734 C 143.2537536621094 113.2789154052734 144.2472839355469 114.2300796508789 144.2472839355469 115.3992233276367 L 144.2472839355469 185.2480010986328 C 144.2472839355469 186.4168243408203 143.2537536621094 187.3677368164062 142.0325469970703 187.3677368164062 Z M 15.07671737670898 183.1284027099609 L 139.8178100585938 183.1284027099609 L 139.8178100585938 117.5183181762695 L 15.07671737670898 117.5183181762695 L 15.07671737670898 183.1284027099609 Z" stroke="none" fill="#4e7bff"/>
      </g>
    </g>
  </g>
</svg>
