<svg xmlns="http://www.w3.org/2000/svg" width="38.191" height="68.318" viewBox="0 0 38.191 68.318">
  <g id="Group_2938" data-name="Group 2938" transform="translate(1.537 1)">
    <g id="Path_4103" data-name="Path 4103" transform="translate(-35.107 -68.21)" fill="#4e7bff">
      <path d="M70.06,134.528H35.368a.314.314,0,0,1-.284-.338V116.706a.314.314,0,0,1,.284-.338H70.06a.314.314,0,0,1,.284.338V134.19a.314.314,0,0,1-.284.338m-34.409-.676H69.777V117.044H35.652Z" stroke="none"/>
      <path d="M 70.06034088134766 134.5282592773438 L 35.36779022216797 134.5282592773438 C 35.21092224121094 134.5282592773438 35.08400344848633 134.3769378662109 35.08400344848633 134.1904907226562 L 35.08400344848633 116.7060165405273 C 35.08400344848633 116.5193099975586 35.21092224121094 116.3679962158203 35.36779022216797 116.3679962158203 L 70.06034088134766 116.3679962158203 C 70.21717834472656 116.3679962158203 70.34412384033203 116.5193099975586 70.34412384033203 116.7060165405273 L 70.34412384033203 134.1904907226562 C 70.34412384033203 134.3769378662109 70.21717834472656 134.5282592773438 70.06034088134766 134.5282592773438 Z M 35.65158081054688 117.0435562133789 L 35.65158081054688 133.8527374267578 L 69.77653503417969 133.8527374267578 L 69.77653503417969 117.0435562133789 L 35.65158081054688 117.0435562133789 Z" stroke="none" fill="#4e7bff"/>
    </g>
    <g id="Path_4321" data-name="Path 4321" transform="translate(-67.436 -131.212)" fill="#4e7bff">
      <path d="M 100.1255493164062 150.4145660400391 L 88.63468933105469 150.4145660400391 C 88.63405609130859 150.4055480957031 88.63368988037109 150.3959197998047 88.63368988037109 150.3856964111328 L 88.63368988037109 150.3568725585938 L 88.85270690917969 150.3568725585938 L 99.94842529296875 150.3568725585938 L 100.1265563964844 150.3568725585938 L 100.1265563964844 150.3856964111328 C 100.1265563964844 150.3959197998047 100.1261901855469 150.4055480957031 100.1255493164062 150.4145660400391 Z M 100.1265563964844 138.0364227294922 L 99.94842529296875 138.0364227294922 L 88.85270690917969 138.0364227294922 L 88.63368988037109 138.0364227294922 L 88.63368988037109 138.0078887939453 C 88.63368988037109 137.99755859375 88.63406372070312 137.9878234863281 88.63471221923828 137.9787139892578 L 100.1255340576172 137.9787139892578 C 100.1261825561523 137.9878234863281 100.1265563964844 137.99755859375 100.1265563964844 138.0078887939453 L 100.1265563964844 138.0364227294922 Z" stroke="none"/>
      <path d="M 100.2983932495117 150.8145599365234 L 88.46186065673828 150.8145599365234 C 88.33571624755859 150.8145599365234 88.23368835449219 150.6224365234375 88.23368835449219 150.3856964111328 L 88.23368835449219 138.0078887939453 C 88.23368835449219 137.7708740234375 88.33571624755859 137.5787200927734 88.46186065673828 137.5787200927734 L 100.2983932495117 137.5787200927734 C 100.4245147705078 137.5787200927734 100.5265579223633 137.7708740234375 100.5265579223633 138.0078887939453 L 100.5265579223633 150.3856964111328 C 100.5265579223633 150.6224365234375 100.4245147705078 150.8145599365234 100.2983932495117 150.8145599365234 Z M 88.85270690917969 138.4364318847656 L 88.85270690917969 149.9568786621094 L 99.94842529296875 149.9568786621094 L 99.94842529296875 138.4364318847656 L 88.85270690917969 138.4364318847656 Z" stroke="none" fill="#4e7bff"/>
    </g>
    <g id="Path_4322" data-name="Path 4322" transform="translate(-11.97 -101.821)" fill="#4e7bff">
      <path d="M 46.80707168579102 149.9857025146484 L 12.3476390838623 149.9857025146484 C 12.34740352630615 149.9808959960938 12.34727478027344 149.9759063720703 12.34727478027344 149.970703125 L 12.34727478027344 149.9557952880859 L 12.43969440460205 149.9557952880859 L 46.71501541137695 149.9557952880859 L 46.80743408203125 149.9557952880859 L 46.80743408203125 149.970703125 C 46.80743408203125 149.9759063720703 46.80730438232422 149.9808959960938 46.80707168579102 149.9857025146484 Z M 46.80743408203125 138.0086517333984 L 46.71501541137695 138.0086517333984 L 12.43969440460205 138.0086517333984 L 12.34727478027344 138.0086517333984 L 12.34727478027344 137.9939880371094 C 12.34727478027344 137.9886932373047 12.34740829467773 137.9835968017578 12.34765148162842 137.9787139892578 L 46.80705642700195 137.9787139892578 C 46.80730056762695 137.9835968017578 46.80743408203125 137.9886932373047 46.80743408203125 137.9939880371094 L 46.80743408203125 138.0086517333984 Z" stroke="none"/>
      <path d="M 46.96122360229492 150.3856964111328 L 12.19348430633545 150.3856964111328 C 12.05739402770996 150.3856964111328 11.94727420806885 150.1998138427734 11.94727420806885 149.970703125 L 11.94727420806885 137.9939880371094 C 11.94727420806885 137.7646636962891 12.05739402770996 137.5787200927734 12.19348430633545 137.5787200927734 L 46.96122360229492 137.5787200927734 C 47.09731292724609 137.5787200927734 47.20743560791016 137.7646636962891 47.20743560791016 137.9939880371094 L 47.20743560791016 149.970703125 C 47.20743560791016 150.1998138427734 47.09731292724609 150.3856964111328 46.96122360229492 150.3856964111328 Z M 12.43969440460205 138.4086608886719 L 12.43969440460205 149.5558013916016 L 46.71501541137695 149.5558013916016 L 46.71501541137695 138.4086608886719 L 12.43969440460205 138.4086608886719 Z" stroke="none" fill="#4e7bff"/>
    </g>
    <path id="Path_4105" data-name="Path 4105" d="M117.627,134.528a.31.31,0,0,1-.27-.338V116.706a.276.276,0,1,1,.539,0V134.19a.31.31,0,0,1-.27.338" transform="translate(-100.02 -68.21)" fill="#4e7bff" stroke="#4e7bff" stroke-width="0.4"/>
    <path id="Path_4106" data-name="Path 4106" d="M134.076,144.251H127.51a.31.31,0,0,1-.27-.338v-7.688a.31.31,0,0,1,.27-.338h6.567a.31.31,0,0,1,.27.338v7.688a.31.31,0,0,1-.27.338m-6.3-.676h6.027v-7.013h-6.027Z" transform="translate(-104.454 -82.831)" fill="#4e7bff" stroke="#4e7bff" stroke-width="0.3"/>
    <path id="Path_4339" data-name="Path 4339" d="M134.076,144.251H127.51a.31.31,0,0,1-.27-.338v-7.688a.31.31,0,0,1,.27-.338h6.567a.31.31,0,0,1,.27.338v7.688a.31.31,0,0,1-.27.338m-6.3-.676h6.027v-7.013h-6.027Z" transform="translate(-122.176 -82.831)" fill="#4e7bff" stroke="#4e7bff" stroke-width="0.3"/>
    <g id="Path_4338" data-name="Path 4338" transform="translate(-109.049 -120.467)" fill="#4e7bff">
      <path d="M128.8,144.251H127.51a.31.31,0,0,1-.27-.338v-7.688a.31.31,0,0,1,.27-.338H128.8a.31.31,0,0,1,.269.338v7.688a.31.31,0,0,1-.269.338m-1.017-.676h.711v-7.013h-.711Z" stroke="none"/>
      <path d="M 128.7958984375 144.2509002685547 L 127.5095367431641 144.2509002685547 C 127.3607482910156 144.2509002685547 127.2399978637695 144.0995788574219 127.2399978637695 143.9128723144531 L 127.2399978637695 136.2247772216797 C 127.2399978637695 136.038330078125 127.3607482910156 135.8869781494141 127.5095367431641 135.8869781494141 L 128.7958984375 135.8869781494141 C 128.9446716308594 135.8869781494141 129.0653839111328 136.038330078125 129.0653839111328 136.2247772216797 L 129.0653839111328 143.9128723144531 C 129.0653839111328 144.0995788574219 128.9446716308594 144.2509002685547 128.7958984375 144.2509002685547 Z M 127.7790679931641 136.5625610351562 L 127.7790679931641 143.5750732421875 L 128.4898376464844 143.5750732421875 L 128.4898376464844 136.5625610351562 L 127.7790679931641 136.5625610351562 Z" stroke="none" fill="#4e7bff"/>
    </g>
    <path id="Path_4107" data-name="Path 4107" d="M105.887,141.584h-3.215c-.468,0-.846-.1-.846-.221v-4.817c0-.122.379-.221.846-.221h3.215c.467,0,.846.1.846.221v4.817c0,.122-.379.221-.846.221m-2.922-.443h2.508v-4.6h-2.508Z" transform="translate(-86.595 -81.605)" fill="none" stroke="#4e7bff" stroke-width="0.6"/>
    <g id="Path_4337" data-name="Path 4337" transform="translate(-86.429 -120.467)" fill="#4e7bff">
      <path d="M102.607,144.251h-1.286a.31.31,0,0,1-.27-.338v-7.688a.309.309,0,0,1,.27-.338h1.286a.31.31,0,0,1,.27.338v7.688a.31.31,0,0,1-.27.338m-.887-.676h.617v-7.013h-.617Z" stroke="none"/>
      <path d="M 102.6068954467773 144.2509002685547 L 101.3205337524414 144.2509002685547 C 101.1715545654297 144.2509002685547 101.0510177612305 144.0995788574219 101.0510177612305 143.9128723144531 L 101.0510177612305 136.2247772216797 C 101.0510177612305 136.038330078125 101.1715545654297 135.8869781494141 101.3205337524414 135.8869781494141 L 102.6068954467773 135.8869781494141 C 102.7556838989258 135.8869781494141 102.8764266967773 136.038330078125 102.8764266967773 136.2247772216797 L 102.8764266967773 143.9128723144531 C 102.8764266967773 144.0995788574219 102.7556838989258 144.2509002685547 102.6068954467773 144.2509002685547 Z M 101.7200317382812 136.5625610351562 L 101.7200317382812 143.5750732421875 L 102.3373870849609 143.5750732421875 L 102.3373870849609 136.5625610351562 L 101.7200317382812 136.5625610351562 Z" stroke="none" fill="#4e7bff"/>
    </g>
    <g id="Group_2354" data-name="Group 2354" transform="translate(-0.023 0)">
      <g id="Group_2353" data-name="Group 2353" transform="translate(22.407 8.692)">
        <g id="Path_4324" data-name="Path 4324" transform="translate(8.945 0) rotate(90)" fill="#4e7bff">
          <path d="M 6.577470302581787 8.544898986816406 L 6.547510147094727 8.544898986816406 L 6.547510147094727 8.292299270629883 L 6.547510147094727 0.6525987982749939 L 6.547510147094727 0.399998813867569 L 6.577470302581787 0.399998813867569 C 6.588896751403809 0.399998813867569 6.59891939163208 0.4010879695415497 6.607420444488525 0.402686595916748 L 6.607420444488525 8.542198181152344 C 6.598921775817871 8.543804168701172 6.588897705078125 8.544898986816406 6.577470302581787 8.544898986816406 Z M 0.4599102735519409 8.544898986816406 L 0.4299502670764923 8.544898986816406 C 0.4185226261615753 8.544898986816406 0.4084986746311188 8.543804168701172 0.400000274181366 8.542198181152344 L 0.400000274181366 0.402686595916748 C 0.4085009694099426 0.4010879695415497 0.4185237884521484 0.399998813867569 0.4299502670764923 0.399998813867569 L 0.4599102735519409 0.399998813867569 L 0.4599102735519409 0.6525987982749939 L 0.4599102735519409 8.292299270629883 L 0.4599102735519409 8.544898986816406 Z" stroke="none"/>
          <path d="M 6.577470302581787 8.94489860534668 L 0.4299502670764923 8.94489860534668 C 0.1923002749681473 8.94489860534668 2.699279662010667e-07 8.798718452453613 2.699279662010667e-07 8.618598937988281 L 2.699279662010667e-07 0.3262988328933716 C 2.699279662010667e-07 0.145938828587532 0.1923002749681473 -1.174163799078087e-06 0.4299502670764923 -1.174163799078087e-06 L 6.577470302581787 -1.174163799078087e-06 C 6.815120220184326 -1.174163799078087e-06 7.007420063018799 0.145938828587532 7.007420063018799 0.3262988328933716 L 7.007420063018799 8.618598937988281 C 7.007420063018799 8.798718452453613 6.815120220184326 8.94489860534668 6.577470302581787 8.94489860534668 Z M 0.859910249710083 0.6525987982749939 L 0.859910249710083 8.292299270629883 L 6.147510051727295 8.292299270629883 L 6.147510051727295 0.6525987982749939 L 0.859910249710083 0.6525987982749939 Z" stroke="none" fill="#4e7bff"/>
        </g>
        <path id="Path_4325" data-name="Path 4325" d="M1.541,1.446H.131A.135.135,0,0,1,0,1.309V.138A.134.134,0,0,1,.131,0h1.41a.134.134,0,0,1,.131.138V1.309a.134.134,0,0,1-.131.138M.262,1.171H1.41v-.9H.262Z" transform="translate(7.468 7.71) rotate(90)" fill="#4e7bff" stroke="#4e7bff" stroke-width="0.3"/>
        <path id="Path_4326" data-name="Path 4326" d="M1.541,1.534H.131A.135.135,0,0,1,0,1.4V.138A.135.135,0,0,1,.131,0h1.41a.134.134,0,0,1,.131.138V1.4a.134.134,0,0,1-.131.138M.262,1.259H1.41V.275H.262Z" transform="translate(3.01 7.71) rotate(90)" fill="#4e7bff" stroke="#4e7bff" stroke-width="0.3"/>
      </g>
      <g id="Group_2352" data-name="Group 2352" transform="translate(17.105)">
        <g id="Path_4327" data-name="Path 4327" transform="translate(17.285 -111.711)" fill="#4e7bff">
          <path d="M 0.4750069379806519 147.1526184082031 L -15.72214126586914 147.1526184082031 L -16.8596134185791 147.1526184082031 C -16.86954689025879 147.1393890380859 -16.88526153564453 147.1092224121094 -16.88526153564453 147.0617828369141 L -16.88526153564453 112.20166015625 C -16.88526153564453 112.1542129516602 -16.86955261230469 112.1240386962891 -16.85962104797363 112.1108169555664 L 0.4750156104564667 112.1108169555664 C 0.4849509298801422 112.1240386962891 0.5006592273712158 112.1542129516602 0.5006592273712158 112.20166015625 L 0.5006592273712158 147.0617828369141 C 0.5006592273712158 147.1092224121094 0.4849449396133423 147.1393890380859 0.4750069379806519 147.1526184082031 Z M -16.87732124328613 112.2928466796875 L -16.87732124328613 112.6928405761719 L -16.87732124328613 146.5709533691406 L -16.87732124328613 146.970947265625 L -16.47732162475586 146.970947265625 L 0.09241920709609985 146.970947265625 L 0.4924192130565643 146.970947265625 L 0.4924192130565643 146.5709533691406 L 0.4924192130565643 112.6928405761719 L 0.4924192130565643 112.2928466796875 L 0.09241920709609985 112.2928466796875 L -16.47732162475586 112.2928466796875 L -16.87732124328613 112.2928466796875 Z" stroke="none"/>
          <path d="M 0.4966892004013062 147.5526275634766 L -16.88129043579102 147.5526275634766 C -17.10429000854492 147.5526275634766 -17.2852611541748 147.3327178955078 -17.2852611541748 147.0617828369141 L -17.2852611541748 112.20166015625 C -17.2852611541748 111.9306945800781 -17.10429000854492 111.7108154296875 -16.88129043579102 111.7108154296875 L 0.4966892004013062 111.7108154296875 C 0.7196791768074036 111.7108154296875 0.9006592035293579 111.9306945800781 0.9006592035293579 112.20166015625 L 0.9006592035293579 147.0617828369141 C 0.9006592035293579 147.3327178955078 0.7196791768074036 147.5526275634766 0.4966892004013062 147.5526275634766 Z M -16.47732162475586 112.6928405761719 L -16.47732162475586 146.5709533691406 L 0.09241920709609985 146.5709533691406 L 0.09241920709609985 112.6928405761719 L -16.47732162475586 112.6928405761719 Z" stroke="none" fill="#4e7bff"/>
        </g>
      </g>
      <g id="Group_2351" data-name="Group 2351">
        <g id="Path_4330" data-name="Path 4330" transform="translate(15.982 -111.711)" fill="#4e7bff">
          <path d="M 1.17547345161438 147.1526184082031 L -14.4374942779541 147.1526184082031 L -15.55766201019287 147.1526184082031 C -15.568284034729 147.1374206542969 -15.58189487457275 147.1058044433594 -15.58189487457275 147.0617828369141 L -15.58189487457275 146.970947265625 L -15.18363475799561 146.970947265625 L 0.801145613193512 146.970947265625 L 1.199705600738525 146.970947265625 L 1.199705600738525 147.0617828369141 C 1.199705600738525 147.1058044433594 1.186095595359802 147.1374206542969 1.17547345161438 147.1526184082031 Z M 1.199705600738525 112.2928466796875 L 0.801145613193512 112.2928466796875 L -15.18363475799561 112.2928466796875 L -15.58189487457275 112.2928466796875 L -15.58189487457275 112.20166015625 C -15.58189487457275 112.1576385498047 -15.56829071044922 112.1260070800781 -15.55767059326172 112.1108169555664 L 1.175482273101807 112.1108169555664 C 1.186102151870728 112.1260070800781 1.199705600738525 112.1576385498047 1.199705600738525 112.20166015625 L 1.199705600738525 112.2928466796875 Z" stroke="none"/>
          <path d="M 1.200575590133667 147.5526275634766 L -15.58276462554932 147.5526275634766 C -15.80308437347412 147.5526275634766 -15.98189449310303 147.3327178955078 -15.98189449310303 147.0617828369141 L -15.98189449310303 112.20166015625 C -15.98189449310303 111.9306945800781 -15.80308437347412 111.7108154296875 -15.58276462554932 111.7108154296875 L 1.200575590133667 111.7108154296875 C 1.420895576477051 111.7108154296875 1.599705576896667 111.9306945800781 1.599705576896667 112.20166015625 L 1.599705576896667 147.0617828369141 C 1.599705576896667 147.3327178955078 1.420895576477051 147.5526275634766 1.200575590133667 147.5526275634766 Z M -15.18363475799561 112.6928405761719 L -15.18363475799561 146.5709533691406 L 0.801145613193512 146.5709533691406 L 0.801145613193512 112.6928405761719 L -15.18363475799561 112.6928405761719 Z" stroke="none" fill="#4e7bff"/>
        </g>
        <g id="Path_4332" data-name="Path 4332" transform="translate(-10.415 -114.66)" fill="#4e7bff">
          <path d="M 23.77432823181152 146.4574584960938 L 13.60016822814941 146.4574584960938 C 13.59224605560303 146.4375152587891 13.58434200286865 146.4069976806641 13.58434200286865 146.3666229248047 L 13.58434200286865 146.2757873535156 L 13.88408184051514 146.2757873535156 L 23.49062156677246 146.2757873535156 L 23.79010200500488 146.2757873535156 L 23.79010200500488 146.3666229248047 C 23.79010200500488 146.4069976806641 23.7822265625 146.4375 23.77432823181152 146.4574584960938 Z M 23.79010200500488 118.885986328125 L 23.49062156677246 118.885986328125 L 13.88408184051514 118.885986328125 L 13.58434200286865 118.885986328125 L 13.58434200286865 118.7947769165039 C 13.58434200286865 118.7544097900391 13.59224510192871 118.7238998413086 13.60016822814941 118.7039413452148 L 23.77433013916016 118.7039413452148 C 23.7822265625 118.7238998413086 23.79010200500488 118.7544097900391 23.79010200500488 118.7947769165039 L 23.79010200500488 118.885986328125 Z" stroke="none"/>
          <path d="M 23.84036064147949 146.8574676513672 L 13.53408145904541 146.8574676513672 C 13.34102153778076 146.8574676513672 13.18434143066406 146.6375732421875 13.18434143066406 146.3666229248047 L 13.18434143066406 118.7947769165039 C 13.18434143066406 118.5238265991211 13.34102153778076 118.3039474487305 13.53408145904541 118.3039474487305 L 23.84036064147949 118.3039474487305 C 24.03368186950684 118.3039474487305 24.19010162353516 118.5238265991211 24.19010162353516 118.7947769165039 L 24.19010162353516 146.3666229248047 C 24.19010162353516 146.6375732421875 24.03368186950684 146.8574676513672 23.84036064147949 146.8574676513672 Z M 13.88408184051514 119.2859802246094 L 13.88408184051514 145.8757781982422 L 23.49062156677246 145.8757781982422 L 23.49062156677246 119.2859802246094 L 13.88408184051514 119.2859802246094 Z" stroke="none" fill="#4e7bff"/>
        </g>
      </g>
    </g>
    <g id="Path_4345" data-name="Path 4345" transform="translate(35.654 0) rotate(90)" fill="#4e7bff">
      <path d="M 65.85491180419922 36.6907958984375 L 0.4630789458751678 36.6907958984375 C -0.06796104460954666 36.6907958984375 -0.500001072883606 36.28033447265625 -0.500001072883606 35.77580642700195 L -0.500001072883606 0.4152660369873047 C -0.500001072883606 -0.08941395580768585 -0.06796104460954666 -0.5000039339065552 0.4630789458751678 -0.5000039339065552 L 65.85491180419922 -0.5000039339065552 C 66.38594818115234 -0.5000039339065552 66.81797790527344 -0.08941395580768585 66.81797790527344 0.4152660369873047 L 66.81797790527344 35.77580642700195 C 66.81797790527344 36.28033447265625 66.38594818115234 36.6907958984375 65.85491180419922 36.6907958984375 Z M 1.426149010658264 34.86089706420898 L 64.89183044433594 34.86089706420898 L 64.89183044433594 1.329936027526855 L 1.426149010658264 1.329936027526855 L 1.426149010658264 34.86089706420898 Z" stroke="none"/>
      <path d="M 65.85491180419922 36.1907958984375 C 66.11087036132812 36.1907958984375 66.31797790527344 36.00490570068359 66.31797790527344 35.77580642700195 L 66.31797790527344 0.4152660369873047 C 66.31797790527344 0.1859360486268997 66.11087036132812 -3.958130037062801e-06 65.85491180419922 -3.958130037062801e-06 L 0.4630789458751678 -3.958130037062801e-06 C 0.2071089595556259 -3.958130037062801e-06 -1.047363298312121e-06 0.1859360486268997 -1.047363298312121e-06 0.4152660369873047 L -1.047363298312121e-06 35.77580642700195 C -1.047363298312121e-06 36.00490570068359 0.2071089595556259 36.1907958984375 0.4630789458751678 36.1907958984375 L 65.85491180419922 36.1907958984375 M 0.9261489510536194 0.8299360275268555 L 65.39183044433594 0.8299360275268555 L 65.39183044433594 35.36089706420898 L 0.9261489510536194 35.36089706420898 L 0.9261489510536194 0.8299360275268555 M 65.85491180419922 37.1907958984375 L 0.4630789458751678 37.1907958984375 C -0.343671053647995 37.1907958984375 -1.000001072883606 36.55603790283203 -1.000001072883606 35.77580642700195 L -1.000001072883606 0.4152660369873047 C -1.000001072883606 -0.3651139438152313 -0.343671053647995 -1.000003933906555 0.4630789458751678 -1.000003933906555 L 65.85491180419922 -1.000003933906555 C 66.66165161132812 -1.000003933906555 67.31797790527344 -0.3651139438152313 67.31797790527344 0.4152660369873047 L 67.31797790527344 35.77580642700195 C 67.31797790527344 36.55603790283203 66.66165161132812 37.1907958984375 65.85491180419922 37.1907958984375 Z M 1.926149010658264 34.36089706420898 L 64.39183044433594 34.36089706420898 L 64.39183044433594 1.829936027526855 L 1.926149010658264 1.829936027526855 L 1.926149010658264 34.36089706420898 Z" stroke="none" fill="#4e7bff"/>
    </g>
  </g>
</svg>
