<svg xmlns="http://www.w3.org/2000/svg" xmlns:xlink="http://www.w3.org/1999/xlink" width="100" height="133" viewBox="0 0 100% 100%">
  <defs>
    <clipPath id="clip-dimm">
      <rect width="100%" height="100%"/>
    </clipPath>
  </defs>
  <g id="dimm" clip-path="url(#clip-dimm)">
    <g id="Group_2347" data-name="Group 2347" transform="translate(1.075 3.198)">
      <path id="Path_4103" data-name="Path 4103" d="M103.994,150.132H35.643a.6.6,0,0,1-.559-.628V117a.6.6,0,0,1,.559-.628h68.351a.6.6,0,0,1,.559.628V149.5a.6.6,0,0,1-.559.628M36.2,148.876h67.232V117.624H36.2Z" transform="translate(-34.607 -21.147)" fill="#4d7bff" stroke="#4e7bff" stroke-width="0.8"/>
      <path id="Path_4320" data-name="Path 4320" d="M113.81,150.132H88.379a.572.572,0,0,1-.488-.628V117a.572.572,0,0,1,.488-.628H113.81a.572.572,0,0,1,.488.628V149.5a.572.572,0,0,1-.488.628m-24.943-1.256h24.454V117.624H88.867Z" transform="translate(-17.944 -21.147)" fill="#4d7bff" stroke="#4e7bff" stroke-width="0.8"/>
      <path id="Path_4321" data-name="Path 4321" d="M113.81,162.811H88.379c-.27,0-.488-.366-.488-.818V138.4c0-.452.218-.818.488-.818H113.81c.27,0,.488.366.488.818v23.6c0,.451-.218.818-.488.818m-24.943-1.635h24.454V139.214H88.867Z" transform="translate(-17.945 -66.869)" fill="#4d7bff" stroke="#4e7bff" stroke-width="0.8"/>
      <path id="Path_4322" data-name="Path 4322" d="M80.6,162.811H12.43c-.267,0-.483-.366-.483-.818V138.4c0-.452.216-.818.483-.818H80.6c.267,0,.483.366.483.818v23.6c0,.451-.216.818-.483.818m-67.685-1.635h67.2V139.214h-67.2Z" transform="translate(-11.135 -66.869)" fill="#4d7bff" stroke="#4e7bff" stroke-width="0.8"/>
      <path id="Path_4105" data-name="Path 4105" d="M117.888,150.132a.586.586,0,0,1-.531-.628V117a.538.538,0,1,1,1.062,0V149.5a.586.586,0,0,1-.531.628" transform="translate(-82.677 -21.147)" fill="#4d7bff" stroke="#4e7bff" stroke-width="0.4"/>
      <path id="Path_4106" data-name="Path 4106" d="M130.305,152.365h-2.534a.61.61,0,0,1-.531-.666V136.553a.61.61,0,0,1,.531-.665h2.534a.61.61,0,0,1,.531.665V151.7a.61.61,0,0,1-.531.666m-2-1.331h1.472V137.218H128.3Z" transform="translate(-88.372 -31.016)" fill="#4d7bff" stroke="#4e7bff" stroke-width="0.3"/>
      <path id="Path_4319" data-name="Path 4319" d="M130.305,152.365h-2.534a.61.61,0,0,1-.531-.666V136.553a.61.61,0,0,1,.531-.665h2.534a.61.61,0,0,1,.531.665V151.7a.61.61,0,0,1-.531.666m-2-1.331h1.472V137.218H128.3Z" transform="translate(-53.297 -31.016)" fill="#4d7bff" stroke="#4e7bff" stroke-width="0.3"/>
      <path id="Path_4107" data-name="Path 4107" d="M104.116,152.365h-2.534a.61.61,0,0,1-.531-.666V136.553a.61.61,0,0,1,.531-.665h2.534a.61.61,0,0,1,.531.665V151.7a.61.61,0,0,1-.531.666m-2-1.331h1.472V137.218h-1.472Z" transform="translate(-73.093 -31.016)" fill="#4d7bff" stroke="#4e7bff" stroke-width="0.3"/>
      <g id="Group_2354" data-name="Group 2354" transform="translate(0.813)">
        <g id="Group_2353" data-name="Group 2353" transform="translate(69.133)">
          <path id="Path_4323" data-name="Path 4323" d="M69.747,26.408H.967c-.534,0-.967-.289-.967-.646V.646C0,.289.433,0,.967,0h68.78c.534,0,.967.289.967.646V25.762c0,.357-.433.646-.967.646M1.934,25.116H68.779V1.292H1.934Z" transform="translate(26.408) rotate(90)" fill="#4d7bff" stroke="#4e7bff" stroke-width="0.8"/>
          <g id="Path_4324" data-name="Path 4324" transform="translate(21.207 11.638) rotate(90)" fill="#4d7bff">
            <path d="M 14.79399108886719 15.60637760162354 L 0.9670508503913879 15.60637760162354 C 0.6285014748573303 15.60637760162354 0.4286523759365082 15.47277450561523 0.4000008106231689 15.41512489318848 L 0.4000008106231689 0.5911027193069458 C 0.4284445643424988 0.5335507988929749 0.6281789541244507 0.3999971747398376 0.9670508503913879 0.3999971747398376 L 14.79399108886719 0.3999971747398376 C 15.13286304473877 0.3999971747398376 15.33259677886963 0.5335507988929749 15.36104106903076 0.5911027193069458 L 15.36104106903076 15.41512489318848 C 15.33238887786865 15.47277450561523 15.13253974914551 15.60637760162354 14.79399108886719 15.60637760162354 Z M 1.534100770950317 1.0403071641922 L 1.534100770950317 1.440307140350342 L 1.534100770950317 14.63183689117432 L 1.534100770950317 15.03183746337891 L 1.934100866317749 15.03183746337891 L 13.82694053649902 15.03183746337891 L 14.22694110870361 15.03183746337891 L 14.22694110870361 14.63183689117432 L 14.22694110870361 1.440307140350342 L 14.22694110870361 1.0403071641922 L 13.82694053649902 1.0403071641922 L 1.934100866317749 1.0403071641922 L 1.534100770950317 1.0403071641922 Z" stroke="none"/>
            <path d="M 14.79399108886719 15.20637702941895 C 14.86137390136719 15.20637702941895 14.91737365722656 15.19850826263428 14.96104049682617 15.18832206726074 L 14.96104049682617 0.8180001974105835 C 14.91736793518066 0.8078413605690002 14.86137390136719 0.7999971508979797 14.79399108886719 0.7999971508979797 L 14.62694072723389 0.7999971508979797 L 14.62694072723389 15.20637702941895 L 14.79399108886719 15.20637702941895 M 1.134100794792175 15.20637702941895 L 1.134100794792175 0.7999971508979797 L 0.9670508503913879 0.7999971508979797 C 0.8996676802635193 0.7999971508979797 0.8436737060546875 0.8078413605690002 0.8000008463859558 0.8180001974105835 L 0.8000008463859558 15.18832206726074 C 0.8436678051948547 15.19850826263428 0.8996676802635193 15.20637702941895 0.9670508503913879 15.20637702941895 L 1.134100794792175 15.20637702941895 M 14.79399108886719 16.00637626647949 L 0.9670508503913879 16.00637626647949 C 0.4325108230113983 16.00637626647949 8.206176858038816e-07 15.74479675292969 8.206176858038816e-07 15.42247676849365 L 8.206176858038816e-07 0.5838971734046936 C 8.206176858038816e-07 0.2611471712589264 0.4325108230113983 -2.820434474415379e-06 0.9670508503913879 -2.820434474415379e-06 L 14.79399108886719 -2.820434474415379e-06 C 15.32853126525879 -2.820434474415379e-06 15.76104068756104 0.2611471712589264 15.76104068756104 0.5838971734046936 L 15.76104068756104 15.42247676849365 C 15.76104068756104 15.74479675292969 15.32853126525879 16.00637626647949 14.79399108886719 16.00637626647949 Z M 1.934100866317749 1.440307140350342 L 1.934100866317749 14.63183689117432 L 13.82694053649902 14.63183689117432 L 13.82694053649902 1.440307140350342 L 1.934100866317749 1.440307140350342 Z" stroke="none" fill="#4e7bff"/>
          </g>
          <path id="Path_4326" data-name="Path 4326" d="M6.169,4.671H.525A.481.481,0,0,1,0,4.252V.419A.481.481,0,0,1,.525,0H6.169a.481.481,0,0,1,.525.419V4.252a.481.481,0,0,1-.525.419M1.05,3.833H5.644v-3H1.05Z" transform="translate(12.539 31.03) rotate(90)" fill="#4d7bff" stroke="#4e7bff" stroke-width="0.3"/>
          <path id="Path_4344" data-name="Path 4344" d="M6.169,4.671H.525A.481.481,0,0,1,0,4.252V.419A.481.481,0,0,1,.525,0H6.169a.481.481,0,0,1,.525.419V4.252a.481.481,0,0,1-.525.419M1.05,3.833H5.644v-3H1.05Z" transform="translate(18.539 31.03) rotate(90)" fill="#4d7bff" stroke="#4e7bff" stroke-width="0.3"/>
        </g>
        <g id="Group_2352" data-name="Group 2352" transform="translate(34.456 0.099)">
          <path id="Path_4334" data-name="Path 4334" d="M6.169,4.671H.525A.481.481,0,0,1,0,4.252V.419A.481.481,0,0,1,.525,0H6.169a.481.481,0,0,1,.525.419V4.252a.481.481,0,0,1-.525.419M1.05,3.833H5.644v-3H1.05Z" transform="translate(16.524 31.961) rotate(90)" fill="#4d7bff" stroke="#4e7bff" stroke-width="0.3"/>
          <path id="Path_4327" data-name="Path 4327" d="M16.681,182.326H-16.514a.886.886,0,0,1-.772-.967V112.678a.886.886,0,0,1,.772-.967H16.681a.886.886,0,0,1,.772.967v68.681a.886.886,0,0,1-.772.967m-32.423-1.934H15.909V113.646H-15.742Z" transform="translate(17.285 -111.711)" fill="#4d7bff" stroke="#4e7bff" stroke-width="0.8"/>
          <g id="Path_4328" data-name="Path 4328" transform="translate(-2.835 -111.124)" fill="#4d7bff">
            <path d="M 22.18077278137207 174.1595306396484 L 8.892133712768555 174.1595306396484 C 8.716342926025391 174.1595306396484 8.520473480224609 173.9266510009766 8.520473480224609 173.5924835205078 L 8.520473480224609 119.2709808349609 C 8.520473480224609 118.9368286132812 8.716342926025391 118.7039566040039 8.892133712768555 118.7039566040039 L 22.18077278137207 118.7039566040039 C 22.35656356811523 118.7039566040039 22.55243301391602 118.9368286132812 22.55243301391602 119.2709808349609 L 22.55243301391602 173.5924835205078 C 22.55243301391602 173.9266510009766 22.35656356811523 174.1595306396484 22.18077278137207 174.1595306396484 Z M 9.264352798461914 119.8387603759766 L 9.264352798461914 120.2387542724609 L 9.264352798461914 172.6254272460938 L 9.264352798461914 173.0254211425781 L 9.664353370666504 173.0254211425781 L 21.40912246704102 173.0254211425781 L 21.80912399291992 173.0254211425781 L 21.80912399291992 172.6254272460938 L 21.80912399291992 120.2387542724609 L 21.80912399291992 119.8387603759766 L 21.40912246704102 119.8387603759766 L 9.664353370666504 119.8387603759766 L 9.264352798461914 119.8387603759766 Z" stroke="none"/>
            <path d="M 22.11318588256836 173.7595367431641 C 22.13055229187012 173.7296600341797 22.15243339538574 173.6740264892578 22.15243339538574 173.5924835205078 L 22.15243339538574 173.4254302978516 L 8.920473098754883 173.4254302978516 L 8.920473098754883 173.5924835205078 C 8.920473098754883 173.6740264892578 8.942446708679199 173.7296752929688 8.959877967834473 173.7595367431641 L 22.11318588256836 173.7595367431641 M 22.15243339538574 119.4387588500977 L 22.15243339538574 119.2709808349609 C 22.15243339538574 119.1894607543945 22.13056182861328 119.1338272094727 22.11320304870605 119.1039581298828 L 8.959864616394043 119.1039581298828 C 8.942440986633301 119.1338119506836 8.920473098754883 119.189453125 8.920473098754883 119.2709808349609 L 8.920473098754883 119.4387588500977 L 22.15243339538574 119.4387588500977 M 22.18077278137207 174.5595397949219 L 8.892133712768555 174.5595397949219 C 8.46617317199707 174.5595397949219 8.12047290802002 174.1262817382812 8.12047290802002 173.5924835205078 L 8.12047290802002 119.2709808349609 C 8.12047290802002 118.7371673583984 8.46617317199707 118.303955078125 8.892133712768555 118.303955078125 L 22.18077278137207 118.303955078125 C 22.60730361938477 118.303955078125 22.95243263244629 118.7371673583984 22.95243263244629 119.2709808349609 L 22.95243263244629 173.5924835205078 C 22.95243263244629 174.1262817382812 22.60730361938477 174.5595397949219 22.18077278137207 174.5595397949219 Z M 9.664353370666504 120.2387542724609 L 9.664353370666504 172.6254272460938 L 21.40912246704102 172.6254272460938 L 21.40912246704102 120.2387542724609 L 9.664353370666504 120.2387542724609 Z" stroke="none" fill="#4e7bff"/>
          </g>
          <g id="Path_4329" data-name="Path 4329" transform="translate(0.974 -111.174)" fill="#4d7bff">
            <path d="M 27.61786270141602 174.1595306396484 L 21.63406372070312 174.1595306396484 C 21.45828247070312 174.1595306396484 21.26242256164551 173.9266510009766 21.26242256164551 173.5924835205078 L 21.26242256164551 119.2709808349609 C 21.26242256164551 118.9368286132812 21.45828247070312 118.7039566040039 21.63406372070312 118.7039566040039 L 27.61786270141602 118.7039566040039 C 27.79364395141602 118.7039566040039 27.98950386047363 118.9368286132812 27.98950386047363 119.2709808349609 L 27.98950386047363 173.5924835205078 C 27.98950386047363 173.9266510009766 27.79364395141602 174.1595306396484 27.61786270141602 174.1595306396484 Z M 22.00629234313965 119.8387603759766 L 22.00629234313965 120.2387542724609 L 22.00629234313965 172.6254272460938 L 22.00629234313965 173.0254211425781 L 22.40629386901855 173.0254211425781 L 26.8462028503418 173.0254211425781 L 27.24620246887207 173.0254211425781 L 27.24620246887207 172.6254272460938 L 27.24620246887207 120.2387542724609 L 27.24620246887207 119.8387603759766 L 26.8462028503418 119.8387603759766 L 22.40629386901855 119.8387603759766 L 22.00629234313965 119.8387603759766 Z" stroke="none"/>
            <path d="M 27.55026817321777 173.7595367431641 C 27.56763076782227 173.7296600341797 27.58950233459473 173.6740112304688 27.58950233459473 173.5924835205078 L 27.58950233459473 173.4254302978516 L 21.66242408752441 173.4254302978516 L 21.66242408752441 173.5924835205078 C 21.66242408752441 173.6740264892578 21.68439483642578 173.7296752929688 21.70182418823242 173.7595367431641 L 27.55026817321777 173.7595367431641 M 27.58950233459473 119.4387588500977 L 27.58950233459473 119.2709808349609 C 27.58950233459473 119.1894607543945 27.56763648986816 119.1338272094727 27.55027770996094 119.1039581298828 L 21.70181465148926 119.1039581298828 C 21.68438911437988 119.1338119506836 21.66242408752441 119.1894454956055 21.66242408752441 119.2709808349609 L 21.66242408752441 119.4387588500977 L 27.58950233459473 119.4387588500977 M 27.61786270141602 174.5595397949219 L 21.63406372070312 174.5595397949219 C 21.2081127166748 174.5595397949219 20.86242294311523 174.1262817382812 20.86242294311523 173.5924835205078 L 20.86242294311523 119.2709808349609 C 20.86242294311523 118.7371673583984 21.2081127166748 118.303955078125 21.63406372070312 118.303955078125 L 27.61786270141602 118.303955078125 C 28.04439353942871 118.303955078125 28.38950347900391 118.7371673583984 28.38950347900391 119.2709808349609 L 28.38950347900391 173.5924835205078 C 28.38950347900391 174.1262817382812 28.04439353942871 174.5595397949219 27.61786270141602 174.5595397949219 Z M 22.40629386901855 120.2387542724609 L 22.40629386901855 172.6254272460938 L 26.8462028503418 172.6254272460938 L 26.8462028503418 120.2387542724609 L 22.40629386901855 120.2387542724609 Z" stroke="none" fill="#4e7bff"/>
          </g>
        </g>
        <g id="Group_2351" data-name="Group 2351" transform="translate(0 0.099)">
          <path id="Path_4333" data-name="Path 4333" d="M6.169,4.671H.525A.481.481,0,0,1,0,4.252V.419A.481.481,0,0,1,.525,0H6.169a.481.481,0,0,1,.525.419V4.252a.481.481,0,0,1-.525.419M1.05,3.833H5.644v-3H1.05Z" transform="translate(15.302 31.961) rotate(90)" fill="#4d7bff" stroke="#4e7bff" stroke-width="0.3"/>
          <path id="Path_4330" data-name="Path 4330" d="M17.237,182.326H-15.21a.886.886,0,0,1-.772-.967V112.678a.886.886,0,0,1,.772-.967H17.237a.886.886,0,0,1,.772.967v68.681a.886.886,0,0,1-.772.967m-31.676-1.934h30.9V113.646h-30.9Z" transform="translate(15.982 -111.711)" fill="#4d7bff" stroke="#4e7bff" stroke-width="0.8"/>
          <g id="Path_4331" data-name="Path 4331" transform="translate(-4.666 -111.124)" fill="#4d7bff">
            <path d="M 22.69133758544922 174.1595306396484 L 10.08865737915039 174.1595306396484 C 9.912867546081543 174.1595306396484 9.716997146606445 173.9266510009766 9.716997146606445 173.5924835205078 L 9.716997146606445 119.2709808349609 C 9.716997146606445 118.9368286132812 9.912867546081543 118.7039566040039 10.08865737915039 118.7039566040039 L 22.69133758544922 118.7039566040039 C 22.86712837219238 118.7039566040039 23.06299781799316 118.9368286132812 23.06299781799316 119.2709808349609 L 23.06299781799316 173.5924835205078 C 23.06299781799316 173.9266510009766 22.86712837219238 174.1595306396484 22.69133758544922 174.1595306396484 Z M 10.46087741851807 119.8387603759766 L 10.46087741851807 120.2387542724609 L 10.46087741851807 172.6254272460938 L 10.46087741851807 173.0254211425781 L 10.86087703704834 173.0254211425781 L 21.91969680786133 173.0254211425781 L 22.31969833374023 173.0254211425781 L 22.31969833374023 172.6254272460938 L 22.31969833374023 120.2387542724609 L 22.31969833374023 119.8387603759766 L 21.91969680786133 119.8387603759766 L 10.86087703704834 119.8387603759766 L 10.46087741851807 119.8387603759766 Z" stroke="none"/>
            <path d="M 22.62374877929688 173.7595367431641 C 22.64111518859863 173.7296600341797 22.66299819946289 173.6740264892578 22.66299819946289 173.5924835205078 L 22.66299819946289 173.4254302978516 L 10.11699771881104 173.4254302978516 L 10.11699771881104 173.5924835205078 C 10.11699771881104 173.6740264892578 10.13897037506104 173.7296752929688 10.15640163421631 173.7595367431641 L 22.62374877929688 173.7595367431641 M 22.66299819946289 119.4387588500977 L 22.66299819946289 119.2709808349609 C 22.66299819946289 119.1894607543945 22.64112663269043 119.1338272094727 22.62376594543457 119.1039581298828 L 10.1563892364502 119.1039581298828 C 10.13896465301514 119.1338119506836 10.11699771881104 119.189453125 10.11699771881104 119.2709808349609 L 10.11699771881104 119.4387588500977 L 22.66299819946289 119.4387588500977 M 22.69133758544922 174.5595397949219 L 10.08865737915039 174.5595397949219 C 9.662697792053223 174.5595397949219 9.316997528076172 174.1262817382812 9.316997528076172 173.5924835205078 L 9.316997528076172 119.2709808349609 C 9.316997528076172 118.7371673583984 9.662697792053223 118.303955078125 10.08865737915039 118.303955078125 L 22.69133758544922 118.303955078125 C 23.11786842346191 118.303955078125 23.46299743652344 118.7371673583984 23.46299743652344 119.2709808349609 L 23.46299743652344 173.5924835205078 C 23.46299743652344 174.1262817382812 23.11786842346191 174.5595397949219 22.69133758544922 174.5595397949219 Z M 10.86087703704834 120.2387542724609 L 10.86087703704834 172.6254272460938 L 21.91969680786133 172.6254272460938 L 21.91969680786133 120.2387542724609 L 10.86087703704834 120.2387542724609 Z" stroke="none" fill="#4e7bff"/>
          </g>
          <g id="Path_4332" data-name="Path 4332" transform="translate(0.753 -111.124)" fill="#4d7bff">
            <path d="M 27.61786270141602 174.1595306396484 L 21.63406372070312 174.1595306396484 C 21.45828247070312 174.1595306396484 21.26242256164551 173.9266510009766 21.26242256164551 173.5924835205078 L 21.26242256164551 119.2709808349609 C 21.26242256164551 118.9368286132812 21.45828247070312 118.7039566040039 21.63406372070312 118.7039566040039 L 27.61786270141602 118.7039566040039 C 27.79364395141602 118.7039566040039 27.98950386047363 118.9368286132812 27.98950386047363 119.2709808349609 L 27.98950386047363 173.5924835205078 C 27.98950386047363 173.9266510009766 27.79364395141602 174.1595306396484 27.61786270141602 174.1595306396484 Z M 22.00629234313965 119.8387603759766 L 22.00629234313965 120.2387542724609 L 22.00629234313965 172.6254272460938 L 22.00629234313965 173.0254211425781 L 22.40629386901855 173.0254211425781 L 26.8462028503418 173.0254211425781 L 27.24620246887207 173.0254211425781 L 27.24620246887207 172.6254272460938 L 27.24620246887207 120.2387542724609 L 27.24620246887207 119.8387603759766 L 26.8462028503418 119.8387603759766 L 22.40629386901855 119.8387603759766 L 22.00629234313965 119.8387603759766 Z" stroke="none"/>
            <path d="M 27.55026817321777 173.7595367431641 C 27.56763076782227 173.7296600341797 27.58950233459473 173.6740112304688 27.58950233459473 173.5924835205078 L 27.58950233459473 173.4254302978516 L 21.66242408752441 173.4254302978516 L 21.66242408752441 173.5924835205078 C 21.66242408752441 173.6740264892578 21.68439483642578 173.7296752929688 21.70182418823242 173.7595367431641 L 27.55026817321777 173.7595367431641 M 27.58950233459473 119.4387588500977 L 27.58950233459473 119.2709808349609 C 27.58950233459473 119.1894607543945 27.56763648986816 119.1338272094727 27.55027770996094 119.1039581298828 L 21.70181465148926 119.1039581298828 C 21.68438911437988 119.1338119506836 21.66242408752441 119.1894454956055 21.66242408752441 119.2709808349609 L 21.66242408752441 119.4387588500977 L 27.58950233459473 119.4387588500977 M 27.61786270141602 174.5595397949219 L 21.63406372070312 174.5595397949219 C 21.2081127166748 174.5595397949219 20.86242294311523 174.1262817382812 20.86242294311523 173.5924835205078 L 20.86242294311523 119.2709808349609 C 20.86242294311523 118.7371673583984 21.2081127166748 118.303955078125 21.63406372070312 118.303955078125 L 27.61786270141602 118.303955078125 C 28.04439353942871 118.303955078125 28.38950347900391 118.7371673583984 28.38950347900391 119.2709808349609 L 28.38950347900391 173.5924835205078 C 28.38950347900391 174.1262817382812 28.04439353942871 174.5595397949219 27.61786270141602 174.5595397949219 Z M 22.40629386901855 120.2387542724609 L 22.40629386901855 172.6254272460938 L 26.8462028503418 172.6254272460938 L 26.8462028503418 120.2387542724609 L 22.40629386901855 120.2387542724609 Z" stroke="none" fill="#4e7bff"/>
          </g>
        </g>
      </g>
      <path id="Path_4343" data-name="Path 4343" d="M82.2,242.711H-13.7a2.082,2.082,0,0,1-2.281-1.794V113.5a2.082,2.082,0,0,1,2.281-1.794H82.2a2.082,2.082,0,0,1,2.281,1.794V240.917a2.082,2.082,0,0,1-2.281,1.794m-93.616-4.537H79.913V115.936H-11.421Z" transform="translate(14.679 -112.509)" fill="#4d7bff" stroke="#4e7bff" stroke-width="0.2"/>
    </g>
  </g>
</svg>
