<svg xmlns="http://www.w3.org/2000/svg" width="198.2" height="75.781" viewBox="0 0 198.2 75.781">
  <g id="Group_2487" data-name="Group 2487" transform="translate(1.503 8.298)">
    <path id="Path_4103" data-name="Path 4103" d="M70.9,133.915H35.375a.31.31,0,0,1-.291-.326V116.695a.31.31,0,0,1,.291-.327H70.9a.31.31,0,0,1,.291.327v16.894a.31.31,0,0,1-.291.326m-35.231-.653H70.606V117.021H35.665Z" transform="translate(-35.462 -67.265)" fill="#4d7bff" stroke="#4e7bff" stroke-width="0.8"/>
    <path id="Path_4320" data-name="Path 4320" d="M101.361,133.915H88.144a.3.3,0,0,1-.254-.326V116.695a.3.3,0,0,1,.254-.327h13.217a.3.3,0,0,1,.254.327v16.894a.3.3,0,0,1-.254.326M88.4,133.262h12.709V117.021H88.4Z" transform="translate(-52.165 -67.265)" fill="#4d7bff" stroke="#4e7bff" stroke-width="0.8"/>
    <path id="Path_4321" data-name="Path 4321" d="M101.361,150.692H88.144c-.14,0-.254-.19-.254-.425V138c0-.235.114-.425.254-.425h13.217c.14,0,.254.19.254.425v12.263c0,.235-.114.425-.254.425m-12.963-.85h12.709V138.428H88.4Z" transform="translate(-52.165 -101.214)" fill="#4d7bff" stroke="#4e7bff" stroke-width="0.8"/>
    <path id="Path_4322" data-name="Path 4322" d="M47.625,150.692H12.2c-.139,0-.251-.19-.251-.425V138c0-.235.112-.425.251-.425H47.625c.139,0,.251.19.251.425v12.263c0,.235-.112.425-.251.425m-35.176-.85H47.374V138.428H12.449Z" transform="translate(-12.151 -101.214)" fill="#4d7bff" stroke="#4e7bff" stroke-width="0.8"/>
    <path id="Path_4105" data-name="Path 4105" d="M117.633,133.915a.3.3,0,0,1-.276-.326V116.694a.28.28,0,1,1,.552,0v16.894a.3.3,0,0,1-.276.326" transform="translate(-99.96 -67.265)" fill="#4d7bff" stroke="#4e7bff" stroke-width="0.4"/>
    <path id="Path_4106" data-name="Path 4106" d="M128.833,144.451h-1.317a.317.317,0,0,1-.276-.346v-7.872a.317.317,0,0,1,.276-.346h1.317a.317.317,0,0,1,.276.346V144.1a.317.317,0,0,1-.276.346m-1.041-.692h.765v-7.18h-.765Z" transform="translate(-107.666 -81.768)" fill="#4d7bff" stroke="#4e7bff" stroke-width="0.3"/>
    <path id="Path_4319" data-name="Path 4319" d="M128.833,144.451h-1.317a.317.317,0,0,1-.276-.346v-7.872a.317.317,0,0,1,.276-.346h1.317a.317.317,0,0,1,.276.346V144.1a.317.317,0,0,1-.276.346m-1.041-.692h.765v-7.18h-.765Z" transform="translate(-89.438 -81.768)" fill="#4d7bff" stroke="#4e7bff" stroke-width="0.3"/>
    <path id="Path_4107" data-name="Path 4107" d="M102.644,144.451h-1.317a.317.317,0,0,1-.276-.346v-7.872a.317.317,0,0,1,.276-.346h1.317a.317.317,0,0,1,.276.346V144.1a.317.317,0,0,1-.276.346m-1.041-.692h.765v-7.18H101.6Z" transform="translate(-87.147 -81.769)" fill="#4d7bff" stroke="#4e7bff" stroke-width="0.3"/>
    <g id="Group_2354" data-name="Group 2354" transform="translate(-0.204 -0.383)">
      <g id="Group_2353" data-name="Group 2353" transform="translate(35.928)">
        <path id="Path_4323" data-name="Path 4323" d="M36.247,13.724H.5c-.277,0-.5-.15-.5-.336V.336C0,.15.225,0,.5,0H36.247c.277,0,.5.15.5.336V13.389c0,.186-.225.336-.5.336M1.005,13.053H35.744V.671H1.005Z" transform="translate(13.724) rotate(90)" fill="#4d7bff" stroke="#4e7bff" stroke-width="0.8"/>
        <g id="Path_4324" data-name="Path 4324" transform="translate(11.021 6.048) rotate(90)" fill="#4d7bff">
          <path d="M 7.688455581665039 7.918536186218262 L 7.585875511169434 7.918536186218262 L 7.585875511169434 7.604186058044434 L 7.585875511169434 0.7485259771347046 L 7.585875511169434 0.3999959826469421 L 7.688455581665039 0.3999959826469421 C 7.73127269744873 0.3999959826469421 7.765727996826172 0.4059948325157166 7.791035652160645 0.4130187332630157 L 7.791035652160645 7.905475616455078 C 7.765729904174805 7.912519454956055 7.731276035308838 7.918536186218262 7.688455581665039 7.918536186218262 Z M 0.6051557064056396 7.918536186218262 L 0.5025757551193237 7.918536186218262 C 0.4597554504871368 7.918536186218262 0.4253013730049133 7.912519454956055 0.3999957144260406 7.905475616455078 L 0.3999957144260406 0.4130187332630157 C 0.4253033995628357 0.4059948325157166 0.4597588181495667 0.3999959826469421 0.5025757551193237 0.3999959826469421 L 0.6051557064056396 0.3999959826469421 L 0.6051557064056396 0.7485259771347046 L 0.6051557064056396 7.604186058044434 L 0.6051557064056396 7.918536186218262 Z" stroke="none"/>
          <path d="M 7.688455581665039 8.318535804748535 L 0.5025757551193237 8.318535804748535 C 0.2247757315635681 8.318535804748535 -4.272003025107551e-06 8.182585716247559 -4.272003025107551e-06 8.01507568359375 L -4.272003025107551e-06 0.3034560084342957 C -4.272003025107551e-06 0.1357159912586212 0.2247757315635681 -4.004974471172318e-06 0.5025757551193237 -4.004974471172318e-06 L 7.688455581665039 -4.004974471172318e-06 C 7.966255664825439 -4.004974471172318e-06 8.191035270690918 0.1357159912586212 8.191035270690918 0.3034560084342957 L 8.191035270690918 8.01507568359375 C 8.191035270690918 8.182585716247559 7.966255664825439 8.318535804748535 7.688455581665039 8.318535804748535 Z M 1.005155682563782 0.7485259771347046 L 1.005155682563782 7.604186058044434 L 7.18587589263916 7.604186058044434 L 7.18587589263916 0.7485259771347046 L 1.005155682563782 0.7485259771347046 Z" stroke="none" fill="#4e7bff"/>
        </g>
        <path id="Path_4326" data-name="Path 4326" d="M3.206,2.427H.273A.25.25,0,0,1,0,2.21V.218A.25.25,0,0,1,.273,0H3.206a.25.25,0,0,1,.273.218V2.21a.25.25,0,0,1-.273.218M.546,1.992H2.933V.435H.546Z" transform="translate(6.517 16.126) rotate(90)" fill="#4d7bff" stroke="#4e7bff" stroke-width="0.3"/>
        <path id="Path_4344" data-name="Path 4344" d="M3.206,2.427H.273A.25.25,0,0,1,0,2.21V.218A.25.25,0,0,1,.273,0H3.206a.25.25,0,0,1,.273.218V2.21a.25.25,0,0,1-.273.218M.546,1.992H2.933V.435H.546Z" transform="translate(9.635 16.126) rotate(90)" fill="#4d7bff" stroke="#4e7bff" stroke-width="0.3"/>
      </g>
      <g id="Group_2352" data-name="Group 2352" transform="translate(17.907 0.051)">
        <path id="Path_4334" data-name="Path 4334" d="M3.206,2.427H.273A.25.25,0,0,1,0,2.21V.218A.25.25,0,0,1,.273,0H3.206a.25.25,0,0,1,.273.218V2.21a.25.25,0,0,1-.273.218M.546,1.992H2.933V.435H.546Z" transform="translate(8.587 16.61) rotate(90)" fill="#4d7bff" stroke="#4e7bff" stroke-width="0.3"/>
        <path id="Path_4327" data-name="Path 4327" d="M.367,148.409H-16.884a.461.461,0,0,1-.4-.5V112.213a.461.461,0,0,1,.4-.5H.367a.461.461,0,0,1,.4.5v35.693a.461.461,0,0,1-.4.5m-16.85-1.005H-.034V112.716H-16.483Z" transform="translate(17.285 -111.711)" fill="#4d7bff" stroke="#4e7bff" stroke-width="0.8"/>
        <g id="Path_4328" data-name="Path 4328" transform="translate(-5.374 -114.573)" fill="#4d7bff">
          <path d="M 15.40126037597656 147.1400604248047 L 8.548221588134766 147.1400604248047 C 8.537230491638184 147.12451171875 8.520477294921875 147.0903167724609 8.520477294921875 147.0374603271484 L 8.520477294921875 118.8065032958984 C 8.520477294921875 118.753662109375 8.537221908569336 118.7194900512695 8.548211097717285 118.7039489746094 L 15.40127563476562 118.7039489746094 C 15.41316699981689 118.7207336425781 15.42865753173828 118.7564315795898 15.42865753173828 118.8065032958984 L 15.42865753173828 147.0374603271484 C 15.42865753173828 147.0875549316406 15.41315937042236 147.1232604980469 15.40126037597656 147.1400604248047 Z M 8.5228271484375 118.9094772338867 L 8.5228271484375 119.3094787597656 L 8.5228271484375 146.5348815917969 L 8.5228271484375 146.9348907470703 L 8.92282772064209 146.9348907470703 L 15.02659702301025 146.9348907470703 L 15.42659759521484 146.9348907470703 L 15.42659759521484 146.5348815917969 L 15.42659759521484 119.3094787597656 L 15.42659759521484 118.9094772338867 L 15.02659702301025 118.9094772338867 L 8.92282772064209 118.9094772338867 L 8.5228271484375 118.9094772338867 Z" stroke="none"/>
          <path d="M 15.42762756347656 147.5400543212891 L 8.521507263183594 147.5400543212891 C 8.300137519836426 147.5400543212891 8.120477676391602 147.3148803710938 8.120477676391602 147.0374603271484 L 8.120477676391602 118.8065032958984 C 8.120477676391602 118.5290985107422 8.300137519836426 118.3039474487305 8.521507263183594 118.3039474487305 L 15.42762756347656 118.3039474487305 C 15.6492977142334 118.3039474487305 15.82865715026855 118.5290985107422 15.82865715026855 118.8065032958984 L 15.82865715026855 147.0374603271484 C 15.82865715026855 147.3148803710938 15.6492977142334 147.5400543212891 15.42762756347656 147.5400543212891 Z M 8.92282772064209 119.3094787597656 L 8.92282772064209 146.5348815917969 L 15.02659702301025 146.5348815917969 L 15.02659702301025 119.3094787597656 L 8.92282772064209 119.3094787597656 Z" stroke="none" fill="#4e7bff"/>
        </g>
        <g id="Path_4329" data-name="Path 4329" transform="translate(-9.514 -114.598)" fill="#4d7bff">
          <path d="M 24.34685897827148 147.1400604248047 L 21.2901611328125 147.1400604248047 C 21.2791690826416 147.12451171875 21.26241683959961 147.0903167724609 21.26241683959961 147.0374603271484 L 21.26241683959961 118.8065032958984 C 21.26241683959961 118.753662109375 21.27916145324707 118.7194900512695 21.2901496887207 118.7039489746094 L 24.34687423706055 118.7039489746094 C 24.35876655578613 118.7207336425781 24.3742561340332 118.7564315795898 24.3742561340332 118.8065032958984 L 24.3742561340332 147.0374603271484 C 24.3742561340332 147.0875549316406 24.3587589263916 147.1232604980469 24.34685897827148 147.1400604248047 Z M 21.2647762298584 118.9094772338867 L 21.2647762298584 119.3094787597656 L 21.2647762298584 146.5348815917969 L 21.2647762298584 146.9348907470703 L 21.66477584838867 146.9348907470703 L 23.97219657897949 146.9348907470703 L 24.37219619750977 146.9348907470703 L 24.37219619750977 146.5348815917969 L 24.37219619750977 119.3094787597656 L 24.37219619750977 118.9094772338867 L 23.97219657897949 118.9094772338867 L 21.66477584838867 118.9094772338867 L 21.2647762298584 118.9094772338867 Z" stroke="none"/>
          <path d="M 24.37322616577148 147.5400543212891 L 21.26344680786133 147.5400543212891 C 21.04207611083984 147.5400543212891 20.86241722106934 147.3148803710938 20.86241722106934 147.0374603271484 L 20.86241722106934 118.8065032958984 C 20.86241722106934 118.5290985107422 21.04207611083984 118.3039474487305 21.26344680786133 118.3039474487305 L 24.37322616577148 118.3039474487305 C 24.59489631652832 118.3039474487305 24.77425575256348 118.5290985107422 24.77425575256348 118.8065032958984 L 24.77425575256348 147.0374603271484 C 24.77425575256348 147.3148803710938 24.59489631652832 147.5400543212891 24.37322616577148 147.5400543212891 Z M 21.66477584838867 119.3094787597656 L 21.66477584838867 146.5348815917969 L 23.97219657897949 146.5348815917969 L 23.97219657897949 119.3094787597656 L 21.66477584838867 119.3094787597656 Z" stroke="none" fill="#4e7bff"/>
        </g>
      </g>
      <g id="Group_2351" data-name="Group 2351" transform="translate(0 0.051)">
        <path id="Path_4333" data-name="Path 4333" d="M3.206,2.427H.273A.25.25,0,0,1,0,2.21V.218A.25.25,0,0,1,.273,0H3.206a.25.25,0,0,1,.273.218V2.21a.25.25,0,0,1-.273.218M.546,1.992H2.933V.435H.546Z" transform="translate(7.952 16.61) rotate(90)" fill="#4d7bff" stroke="#4e7bff" stroke-width="0.3"/>
        <path id="Path_4330" data-name="Path 4330" d="M1.282,148.409H-15.581a.461.461,0,0,1-.4-.5V112.213a.461.461,0,0,1,.4-.5H1.282a.461.461,0,0,1,.4.5v35.693a.461.461,0,0,1-.4.5M-15.18,147.4H.881V112.716H-15.18Z" transform="translate(15.982 -111.711)" fill="#4d7bff" stroke="#4e7bff" stroke-width="0.8"/>
        <g id="Path_4331" data-name="Path 4331" transform="translate(-6.9 -114.573)" fill="#4d7bff">
          <path d="M 16.24128723144531 147.1400604248047 L 9.744748115539551 147.1400604248047 C 9.733756065368652 147.12451171875 9.71700382232666 147.0903167724609 9.71700382232666 147.0374603271484 L 9.71700382232666 118.8065032958984 C 9.71700382232666 118.753662109375 9.733748435974121 118.7194900512695 9.74473762512207 118.7039489746094 L 16.24130249023438 118.7039489746094 C 16.25319290161133 118.7207336425781 16.26868438720703 118.7564239501953 16.26868438720703 118.8065032958984 L 16.26868438720703 147.0374603271484 C 16.26868438720703 147.0875549316406 16.2531852722168 147.1232604980469 16.24128723144531 147.1400604248047 Z M 9.719353675842285 118.9094772338867 L 9.719353675842285 119.3094787597656 L 9.719353675842285 146.5348815917969 L 9.719353675842285 146.9348907470703 L 10.11935329437256 146.9348907470703 L 15.86663341522217 146.9348907470703 L 16.26663398742676 146.9348907470703 L 16.26663398742676 146.5348815917969 L 16.26663398742676 119.3094787597656 L 16.26663398742676 118.9094772338867 L 15.86663341522217 118.9094772338867 L 10.11935329437256 118.9094772338867 L 9.719353675842285 118.9094772338867 Z" stroke="none"/>
          <path d="M 16.26766395568848 147.5400543212891 L 9.718033790588379 147.5400543212891 C 9.496664047241211 147.5400543212891 9.31700325012207 147.3148803710938 9.31700325012207 147.0374603271484 L 9.31700325012207 118.8065032958984 C 9.31700325012207 118.5290985107422 9.496664047241211 118.3039474487305 9.718033790588379 118.3039474487305 L 16.26766395568848 118.3039474487305 C 16.48932456970215 118.3039474487305 16.6686840057373 118.5290985107422 16.6686840057373 118.8065032958984 L 16.6686840057373 147.0374603271484 C 16.6686840057373 147.3148803710938 16.48932456970215 147.5400543212891 16.26766395568848 147.5400543212891 Z M 10.11935329437256 119.3094787597656 L 10.11935329437256 146.5348815917969 L 15.86663341522217 146.5348815917969 L 15.86663341522217 119.3094787597656 L 10.11935329437256 119.3094787597656 Z" stroke="none" fill="#4e7bff"/>
        </g>
        <g id="Path_4332" data-name="Path 4332" transform="translate(-9.629 -114.573)" fill="#4d7bff">
          <path d="M 24.34685897827148 147.1400604248047 L 21.2901611328125 147.1400604248047 C 21.2791690826416 147.12451171875 21.26241683959961 147.0903167724609 21.26241683959961 147.0374603271484 L 21.26241683959961 118.8065032958984 C 21.26241683959961 118.753662109375 21.27916145324707 118.7194900512695 21.2901496887207 118.7039489746094 L 24.34687423706055 118.7039489746094 C 24.35876655578613 118.7207336425781 24.3742561340332 118.7564315795898 24.3742561340332 118.8065032958984 L 24.3742561340332 147.0374603271484 C 24.3742561340332 147.0875549316406 24.3587589263916 147.1232604980469 24.34685897827148 147.1400604248047 Z M 21.2647762298584 118.9094772338867 L 21.2647762298584 119.3094787597656 L 21.2647762298584 146.5348815917969 L 21.2647762298584 146.9348907470703 L 21.66477584838867 146.9348907470703 L 23.97219657897949 146.9348907470703 L 24.37219619750977 146.9348907470703 L 24.37219619750977 146.5348815917969 L 24.37219619750977 119.3094787597656 L 24.37219619750977 118.9094772338867 L 23.97219657897949 118.9094772338867 L 21.66477584838867 118.9094772338867 L 21.2647762298584 118.9094772338867 Z" stroke="none"/>
          <path d="M 24.37322616577148 147.5400543212891 L 21.26344680786133 147.5400543212891 C 21.04207611083984 147.5400543212891 20.86241722106934 147.3148803710938 20.86241722106934 147.0374603271484 L 20.86241722106934 118.8065032958984 C 20.86241722106934 118.5290985107422 21.04207611083984 118.3039474487305 21.26344680786133 118.3039474487305 L 24.37322616577148 118.3039474487305 C 24.59489631652832 118.3039474487305 24.77425575256348 118.5290985107422 24.77425575256348 118.8065032958984 L 24.77425575256348 147.0374603271484 C 24.77425575256348 147.3148803710938 24.59489631652832 147.5400543212891 24.37322616577148 147.5400543212891 Z M 21.66477584838867 119.3094787597656 L 21.66477584838867 146.5348815917969 L 23.97219657897949 146.5348815917969 L 23.97219657897949 119.3094787597656 L 21.66477584838867 119.3094787597656 Z" stroke="none" fill="#4e7bff"/>
        </g>
      </g>
    </g>
    <g id="Path_4343" data-name="Path 4343" transform="translate(14.679 -112.509)" fill="#4d7bff">
      <path d="M 35.04089736938477 179.8916931152344 L -11.39585113525391 179.8916931152344 L -14.79668140411377 179.8916931152344 C -15.50535106658936 179.8916931152344 -16.08190155029297 179.4286041259766 -16.08190155029297 178.8593902587891 L -16.08190155029297 112.6432037353516 C -16.08190155029297 112.0739593505859 -15.50535106658936 111.6108474731445 -14.79668140411377 111.6108474731445 L 35.04089736938477 111.6108474731445 C 35.74955749511719 111.6108474731445 36.32609939575195 112.0739593505859 36.32609939575195 112.6432037353516 L 36.32609939575195 178.8593902587891 C 36.32609939575195 179.4286041259766 35.74955749511719 179.8916931152344 35.04089736938477 179.8916931152344 Z M -13.51148128509521 177.3336334228516 L 33.75481033325195 177.3336334228516 L 33.75481033325195 114.0066680908203 L -13.51148128509521 114.0066680908203 L -13.51148128509521 177.3336334228516 Z" stroke="none"/>
      <path d="M 35.04089736938477 179.7916870117188 C 35.69513702392578 179.7916870117188 36.22609710693359 179.3739776611328 36.22609710693359 178.8593902587891 L 36.22609710693359 112.6432037353516 C 36.22609710693359 112.1284942626953 35.69513702392578 111.7108459472656 35.04089736938477 111.7108459472656 L -14.79668140411377 111.7108459472656 C -15.45094108581543 111.7108459472656 -15.98190116882324 112.1284942626953 -15.98190116882324 112.6432037353516 L -15.98190116882324 178.8593902587891 C -15.98190116882324 179.3739776611328 -15.45094108581543 179.7916870117188 -14.79668140411377 179.7916870117188 L 35.04089736938477 179.7916870117188 M -13.61148071289062 113.9066696166992 L 33.85480880737305 113.9066696166992 L 33.85480880737305 177.4336395263672 L -13.61148071289062 177.4336395263672 L -13.61148071289062 113.9066696166992 M 35.04089736938477 179.9916839599609 L -14.79668140411377 179.9916839599609 C -15.56049060821533 179.9916839599609 -16.1819019317627 179.4837493896484 -16.1819019317627 178.8593902587891 L -16.1819019317627 112.6432037353516 C -16.1819019317627 112.0188140869141 -15.56049060821533 111.5108489990234 -14.79668140411377 111.5108489990234 L 35.04089736938477 111.5108489990234 C 35.8046989440918 111.5108489990234 36.42609786987305 112.0188140869141 36.42609786987305 112.6432037353516 L 36.42609786987305 178.8593902587891 C 36.42609786987305 179.4837493896484 35.8046989440918 179.9916839599609 35.04089736938477 179.9916839599609 Z M -13.41148090362549 177.233642578125 L 33.65480804443359 177.233642578125 L 33.65480804443359 114.1066665649414 L -13.41148090362549 114.1066665649414 L -13.41148090362549 177.233642578125 Z" stroke="none" fill="#4e7bff"/>
    </g>
    <g id="Group_2255" data-name="Group 2255" transform="translate(-415.303 -301.298)">
      <text id="Warning" transform="translate(550 305)" fill="#f4be43" font-size="12" font-family="Inter" font-weight="500"><tspan x="0" y="0">Warning</tspan></text>
      <circle id="Ellipse_243" data-name="Ellipse 243" cx="4.5" cy="4.5" r="4.5" transform="translate(603 296)" fill="#f4be43"/>
    </g>
  </g>
</svg>
