<svg xmlns="http://www.w3.org/2000/svg" width="37.795" height="68.167" viewBox="0 0 37.795 68.167">
  <g id="Group_2489" data-name="Group 2489" transform="translate(1.3 1.3)">
    <g id="Path_4272" data-name="Path 4272" transform="translate(-36.147)" fill="#4e7bff">
      <path d="M 70.89075469970703 37.20346069335938 L 36.59796524047852 37.20346069335938 C 35.99088287353516 37.20346069335938 35.49699401855469 36.69654083251953 35.49699401855469 36.07344818115234 L 35.49699401855469 1.999939560890198 C 35.49699401855469 0.5387595891952515 36.63129425048828 -0.6500003933906555 38.02554321289062 -0.6500003933906555 L 69.46316528320312 -0.6500003933906555 C 70.85741424560547 -0.6500003933906555 71.99172210693359 0.5387595891952515 71.99172210693359 1.999939560890198 L 71.99172210693359 36.07344818115234 C 71.99172210693359 36.69654083251953 71.49783325195312 37.20346069335938 70.89075469970703 37.20346069335938 Z M 37.69891357421875 34.94342803955078 L 69.78978729248047 34.94342803955078 L 69.78978729248047 1.999939560890198 C 69.78978729248047 1.788779616355896 69.64021301269531 1.610389590263367 69.46316528320312 1.610389590263367 L 38.02554321289062 1.610389590263367 C 37.84849548339844 1.610389590263367 37.69891357421875 1.788779616355896 37.69891357421875 1.999939560890198 L 37.69891357421875 34.94342803955078 Z" stroke="none"/>
      <path d="M 70.89075469970703 36.55345916748047 C 71.14003753662109 36.55345916748047 71.34172058105469 36.33842086791992 71.34172058105469 36.07344818115234 L 71.34172058105469 1.999939560890198 C 71.34172058105469 0.8972595930099487 70.49908447265625 -4.162597520007694e-07 69.46316528320312 -4.162597520007694e-07 L 38.02554321289062 -4.162597520007694e-07 C 36.9896240234375 -4.162597520007694e-07 36.14699554443359 0.8972595930099487 36.14699554443359 1.999939560890198 L 36.14699554443359 36.07344818115234 C 36.14699554443359 36.33842086791992 36.34869384765625 36.55345916748047 36.59796524047852 36.55345916748047 L 70.89075469970703 36.55345916748047 M 38.02554321289062 0.9603895545005798 L 69.46316528320312 0.9603895545005798 C 70.00156402587891 0.9603895545005798 70.43978118896484 1.426489591598511 70.43978118896484 1.999939560890198 L 70.43978118896484 35.59342956542969 L 37.04891586303711 35.59342956542969 L 37.04891586303711 1.999939560890198 C 37.04891586303711 1.426489591598511 37.48715591430664 0.9603895545005798 38.02554321289062 0.9603895545005798 M 70.89075469970703 37.85345840454102 L 36.59796524047852 37.85345840454102 C 35.63247299194336 37.85345840454102 34.84699249267578 37.05495071411133 34.84699249267578 36.07344818115234 L 34.84699249267578 1.999939560890198 C 34.84699249267578 0.180349588394165 36.27288436889648 -1.300000429153442 38.02554321289062 -1.300000429153442 L 69.46316528320312 -1.300000429153442 C 71.21582794189453 -1.300000429153442 72.6417236328125 0.180349588394165 72.6417236328125 1.999939560890198 L 72.6417236328125 36.07344818115234 C 72.6417236328125 37.05495071411133 71.85624694824219 37.85345840454102 70.89075469970703 37.85345840454102 Z M 38.34891510009766 34.29343032836914 L 69.13978576660156 34.29343032836914 L 69.13978576660156 2.260389566421509 L 38.34891510009766 2.260389566421509 L 38.34891510009766 34.29343032836914 Z" stroke="none" fill="#4e7bff"/>
    </g>
    <g id="Path_4273" data-name="Path 4273" transform="translate(-36.15 -64.27)" fill="#4e7bff">
      <path d="M 69.39009857177734 130.4862976074219 L 38.10528564453125 130.4862976074219 C 36.66928482055664 130.4862976074219 35.50100708007812 129.4280853271484 35.50100708007812 128.1273651123047 L 35.50100708007812 100.2013320922852 C 35.50100708007812 99.62547302246094 35.99489593505859 99.156982421875 36.60196685791016 99.156982421875 L 70.89374542236328 99.156982421875 C 71.50082397460938 99.156982421875 71.99471282958984 99.62547302246094 71.99471282958984 100.2013320922852 L 71.99471282958984 128.1273651123047 C 71.99471282958984 129.4280853271484 70.82628631591797 130.4862976074219 69.39009857177734 130.4862976074219 Z M 37.70292663574219 101.2456665039062 L 37.70292663574219 128.1273651123047 C 37.70292663574219 128.2549438476562 37.87499618530273 128.3976135253906 38.10528564453125 128.3976135253906 L 69.39009857177734 128.3976135253906 C 69.62038421630859 128.3976135253906 69.79246520996094 128.2549438476562 69.79246520996094 128.1273651123047 L 69.79246520996094 101.2456665039062 L 37.70292663574219 101.2456665039062 Z" stroke="none"/>
      <path d="M 69.39009857177734 129.8363037109375 C 70.46793365478516 129.8363037109375 71.34471893310547 129.069580078125 71.34471893310547 128.1273651123047 L 71.34471893310547 100.2013320922852 C 71.34471893310547 99.98365783691406 71.14269256591797 99.80697631835938 70.89374542236328 99.80697631835938 L 36.60196685791016 99.80697631835938 C 36.35269546508789 99.80697631835938 36.15100479125977 99.98365783691406 36.15100479125977 100.2013320922852 L 36.15100479125977 128.1273651123047 C 36.15100479125977 129.069580078125 37.02780532836914 129.8363037109375 38.10528564453125 129.8363037109375 L 69.39009857177734 129.8363037109375 M 37.05292510986328 100.5956726074219 L 70.44246673583984 100.5956726074219 L 70.44246673583984 128.1273651123047 C 70.44246673583984 128.634521484375 69.97038269042969 129.047607421875 69.39009857177734 129.047607421875 L 38.10528564453125 129.047607421875 C 37.52499771118164 129.047607421875 37.05292510986328 128.634521484375 37.05292510986328 128.1273651123047 L 37.05292510986328 100.5956726074219 M 69.39009857177734 131.1363067626953 L 38.10528564453125 131.1363067626953 C 36.31086730957031 131.1363067626953 34.85100555419922 129.7864990234375 34.85100555419922 128.1273651123047 L 34.85100555419922 100.2013320922852 C 34.85100555419922 99.26705932617188 35.6364860534668 98.50698089599609 36.60196685791016 98.50698089599609 L 70.89374542236328 98.50698089599609 C 71.85923767089844 98.50698089599609 72.64471435546875 99.26705932617188 72.64471435546875 100.2013320922852 L 72.64471435546875 128.1273651123047 C 72.64471435546875 129.7864990234375 71.1846923828125 131.1363067626953 69.39009857177734 131.1363067626953 Z M 38.35292434692383 127.7476119995117 L 69.14246368408203 127.7476119995117 L 69.14246368408203 101.8956680297852 L 38.35292434692383 101.8956680297852 L 38.35292434692383 127.7476119995117 Z" stroke="none" fill="#4e7bff"/>
    </g>
    <path id="Path_4279" data-name="Path 4279" d="M14.856,6.994H.319c-.176,0-.319-.2-.319-.451V.451C0,.2.143,0,.319,0H14.856c.176,0,.319.2.319.451V6.543c0,.249-.143.451-.319.451M.638,6.092h13.9V.9H.638Z" transform="translate(20.583 10.678) rotate(90)" fill="#4e7bff" stroke="#4e7bff" stroke-width="0.6"/>
    <path id="Path_4280" data-name="Path 4280" d="M118.992,17.12H116.55a.215.215,0,0,1-.208-.222V14.3a.215.215,0,0,1,.208-.222h2.441a.215.215,0,0,1,.208.222v2.6a.215.215,0,0,1-.208.222m-2.233-.444h2.024V14.522h-2.024Z" transform="translate(-87.518 -0.221)" fill="#4e7bff" stroke="#4e7bff" stroke-width="0.4"/>
    <path id="Path_4281" data-name="Path 4281" d="M118.992,40.985H116.55a.215.215,0,0,1-.208-.222v-2.6a.215.215,0,0,1,.208-.222h2.441a.215.215,0,0,1,.208.222v2.6a.215.215,0,0,1-.208.222m-2.233-.444h2.024V38.387h-2.024Z" transform="translate(-87.518 -19.707)" fill="#4e7bff" stroke="#4e7bff" stroke-width="0.4"/>
    <path id="Path_4282" data-name="Path 4282" d="M121.9,80.143h-5.124a.46.46,0,0,1-.437-.48V76.174a.46.46,0,0,1,.437-.48H121.9a.46.46,0,0,1,.437.48v3.489a.46.46,0,0,1-.437.48m-4.845-.663h4.577V76.349h-4.577Z" transform="translate(-94.638 -60.501)" fill="#4e7bff" stroke="#4e7bff" stroke-width="0.4"/>
    <g id="Path_4315" data-name="Path 4315" transform="translate(-102.753 -58.276)" fill="#4e7bff">
      <path d="M 122.8259201049805 79.93332672119141 L 116.8519515991211 79.93332672119141 C 116.8081817626953 79.93332672119141 116.7420120239258 79.85511016845703 116.7420120239258 79.73721313476562 L 116.7420120239258 76.29006958007812 C 116.7420120239258 76.17218780517578 116.8081817626953 76.09398651123047 116.8519515991211 76.09398651123047 L 122.8259201049805 76.09398651123047 C 122.8696975708008 76.09398651123047 122.9358978271484 76.17218780517578 122.9358978271484 76.29006958007812 L 122.9358978271484 79.73721313476562 C 122.9358978271484 79.85511016845703 122.8696975708008 79.93332672119141 122.8259201049805 79.93332672119141 Z M 116.9619216918945 76.48618316650391 L 116.9619216918945 76.88618469238281 L 116.9619216918945 79.14112854003906 L 116.9619216918945 79.54113006591797 L 117.3619155883789 79.54113006591797 L 122.3160095214844 79.54113006591797 L 122.7160110473633 79.54113006591797 L 122.7160110473633 79.14112854003906 L 122.7160110473633 76.88618469238281 L 122.7160110473633 76.48618316650391 L 122.3160095214844 76.48618316650391 L 117.3619155883789 76.48618316650391 L 116.9619216918945 76.48618316650391 Z" stroke="none"/>
      <path d="M 122.8259201049805 80.33332824707031 L 116.8519515991211 80.33332824707031 C 116.5700912475586 80.33332824707031 116.3420104980469 80.06670379638672 116.3420104980469 79.73721313476562 L 116.3420104980469 76.29006958007812 C 116.3420104980469 75.96103668212891 116.5700912475586 75.69398498535156 116.8519515991211 75.69398498535156 L 122.8259201049805 75.69398498535156 C 123.1078186035156 75.69398498535156 123.3358993530273 75.96103668212891 123.3358993530273 76.29006958007812 L 123.3358993530273 79.73721313476562 C 123.3358993530273 80.06670379638672 123.1078186035156 80.33332824707031 122.8259201049805 80.33332824707031 Z M 117.3619155883789 76.88618469238281 L 117.3619155883789 79.14112854003906 L 122.3160095214844 79.14112854003906 L 122.3160095214844 76.88618469238281 L 117.3619155883789 76.88618469238281 Z" stroke="none" fill="#4e7bff"/>
    </g>
    <rect id="Rectangle_2720" data-name="Rectangle 2720" width="6.52" height="14.989" transform="translate(14.063 42.468)" fill="none" stroke="#4e7bff" stroke-linejoin="round" stroke-width="1.5"/>
  </g>
</svg>
