{
  "accessors": [
    {
      "bufferView": 2,
      "componentType": 5126,
      "count": 7520,
      "max": [
        111.30139923095703,
        302.0,
        1103.0634765625
      ],
      "min": [
        -21.171573638916016,
        214.0,
        -168.17156982421875
      ],
      "type": "VEC3"
    },
    {
      "bufferView": 2,
      "byteOffset": 90240,
      "componentType": 5126,
      "count": 7520,
      "max": [
        1.0,
        1.0,
        1.0
      ],
      "min": [
        -1.0,
        -1.0,
        -1.0
      ],
      "type": "VEC3"
    },
    {
      "bufferView": 1,
      "componentType": 5126,
      "count": 7520,
      "max": [
        7.599999904632568,
        12.573512077331543
      ],
      "min": [
        -7.420000076293945,
        -13.5
      ],
      "type": "VEC2"
    },
    {
      "bufferView": 0,
      "componentType": 5125,
      "count": 27888,
      "type": "SCALAR"
    },
    {
      "bufferView": 2,
      "byteOffset": 180480,
      "componentType": 5126,
      "count": 9437,
      "max": [
        815.1602172851563,
        302.0,
        1118.171630859375
      ],
      "min": [
        -21.171573638916016,
        214.0,
        -159.67156982421875
      ],
      "type": "VEC3"
    },
    {
      "bufferView": 2,
      "byteOffset": 293724,
      "componentType": 5126,
      "count": 9437,
      "max": [
        1.0,
        1.0,
        1.0
      ],
      "min": [
        -1.0,
        -1.0,
        -1.0
      ],
      "type": "VEC3"
    },
    {
      "bufferView": 1,
      "byteOffset": 60160,
      "componentType": 5126,
      "count": 9437,
      "max": [
        7.599999904632568,
        12.573512077331543
      ],
      "min": [
        -7.420000076293945,
        -13.5
      ],
      "type": "VEC2"
    },
    {
      "bufferView": 0,
      "byteOffset": 111552,
      "componentType": 5125,
      "count": 34629,
      "type": "SCALAR"
    },
    {
      "bufferView": 2,
      "byteOffset": 406968,
      "componentType": 5126,
      "count": 9287,
      "max": [
        821.1715698242188,
        302.0,
        1118.171630859375
      ],
      "min": [
        688.6986083984375,
        214.0,
        -168.17156982421875
      ],
      "type": "VEC3"
    },
    {
      "bufferView": 2,
      "byteOffset": 518412,
      "componentType": 5126,
      "count": 9287,
      "max": [
        1.0,
        1.0,
        1.0
      ],
      "min": [
        -1.0,
        -1.0,
        -1.0
      ],
      "type": "VEC3"
    },
    {
      "bufferView": 1,
      "byteOffset": 135656,
      "componentType": 5126,
      "count": 9287,
      "max": [
        7.599999904632568,
        12.573512077331543
      ],
      "min": [
        -7.420000076293945,
        -13.5
      ],
      "type": "VEC2"
    },
    {
      "bufferView": 0,
      "byteOffset": 250068,
      "componentType": 5125,
      "count": 36015,
      "type": "SCALAR"
    },
    {
      "bufferView": 2,
      "byteOffset": 629856,
      "componentType": 5126,
      "count": 3168,
      "max": [
        826.1715698242188,
        215.0,
        1123.171630859375
      ],
      "min": [
        -26.171573638916016,
        200.0,
        -173.17156982421875
      ],
      "type": "VEC3"
    },
    {
      "bufferView": 2,
      "byteOffset": 667872,
      "componentType": 5126,
      "count": 3168,
      "max": [
        1.0,
        1.0,
        1.0
      ],
      "min": [
        -1.0,
        -1.0,
        -1.0
      ],
      "type": "VEC3"
    },
    {
      "bufferView": 1,
      "byteOffset": 209952,
      "componentType": 5126,
      "count": 3168,
      "max": [
        9.600000381469727,
        7.099999904632568
      ],
      "min": [
        -7.099999904632568,
        -7.099999904632568
      ],
      "type": "VEC2"
    },
    {
      "bufferView": 0,
      "byteOffset": 394128,
      "componentType": 5125,
      "count": 9072,
      "type": "SCALAR"
    },
    {
      "bufferView": 2,
      "byteOffset": 705888,
      "componentType": 5126,
      "count": 9000,
      "max": [
        825.0,
        200.0,
        1075.0
      ],
      "min": [
        -25.0,
        -1536.0,
        -125.0
      ],
      "type": "VEC3"
    },
    {
      "bufferView": 2,
      "byteOffset": 813888,
      "componentType": 5126,
      "count": 9000,
      "max": [
        1.0,
        1.0,
        1.0
      ],
      "min": [
        -1.0,
        -1.0,
        -1.0
      ],
      "type": "VEC3"
    },
    {
      "bufferView": 1,
      "byteOffset": 235296,
      "componentType": 5126,
      "count": 9000,
      "max": [
        120.0,
        120.0
      ],
      "min": [
        -120.0,
        -2.5
      ],
      "type": "VEC2"
    },
    {
      "bufferView": 0,
      "byteOffset": 430416,
      "componentType": 5125,
      "count": 23760,
      "type": "SCALAR"
    },
    {
      "bufferView": 2,
      "byteOffset": 921888,
      "componentType": 5126,
      "count": 9000,
      "max": [
        825.0,
        -0.0,
        975.0
      ],
      "min": [
        -25.0,
        -1536.0,
        25.0
      ],
      "type": "VEC3"
    },
    {
      "bufferView": 2,
      "byteOffset": 1029888,
      "componentType": 5126,
      "count": 9000,
      "max": [
        1.0,
        1.0,
        1.0
      ],
      "min": [
        -1.0,
        -1.0,
        -1.0
      ],
      "type": "VEC3"
    },
    {
      "bufferView": 1,
      "byteOffset": 307296,
      "componentType": 5126,
      "count": 9000,
      "max": [
        153.60000610351563,
        153.60000610351563
      ],
      "min": [
        -153.60000610351563,
        -2.5
      ],
      "type": "VEC2"
    },
    {
      "bufferView": 0,
      "byteOffset": 525456,
      "componentType": 5125,
      "count": 23760,
      "type": "SCALAR"
    },
    {
      "bufferView": 2,
      "byteOffset": 1137888,
      "componentType": 5126,
      "count": 9000,
      "max": [
        825.0,
        200.0,
        1075.0
      ],
      "min": [
        -25.0,
        -1536.0,
        -125.0
      ],
      "type": "VEC3"
    },
    {
      "bufferView": 2,
      "byteOffset": 1245888,
      "componentType": 5126,
      "count": 9000,
      "max": [
        1.0,
        1.0,
        1.0
      ],
      "min": [
        -1.0,
        -1.0,
        -1.0
      ],
      "type": "VEC3"
    },
    {
      "bufferView": 1,
      "byteOffset": 379296,
      "componentType": 5126,
      "count": 9000,
      "max": [
        153.60000610351563,
        153.60000610351563
      ],
      "min": [
        -153.60000610351563,
        -2.5
      ],
      "type": "VEC2"
    },
    {
      "bufferView": 0,
      "byteOffset": 620496,
      "componentType": 5125,
      "count": 23760,
      "type": "SCALAR"
    },
    {
      "bufferView": 2,
      "byteOffset": 1353888,
      "componentType": 5126,
      "count": 9000,
      "max": [
        825.0,
        200.0,
        1125.0
      ],
      "min": [
        -25.0,
        -1536.0,
        -175.0
      ],
      "type": "VEC3"
    },
    {
      "bufferView": 2,
      "byteOffset": 1461888,
      "componentType": 5126,
      "count": 9000,
      "max": [
        1.0,
        1.0,
        1.0
      ],
      "min": [
        -1.0,
        -1.0,
        -1.0
      ],
      "type": "VEC3"
    },
    {
      "bufferView": 1,
      "byteOffset": 451296,
      "componentType": 5126,
      "count": 9000,
      "max": [
        153.60000610351563,
        153.60000610351563
      ],
      "min": [
        -153.60000610351563,
        -2.5
      ],
      "type": "VEC2"
    },
    {
      "bufferView": 0,
      "byteOffset": 715536,
      "componentType": 5125,
      "count": 23760,
      "type": "SCALAR"
    },
    {
      "bufferView": 2,
      "byteOffset": 1569888,
      "componentType": 5126,
      "count": 9000,
      "max": [
        825.0,
        150.0,
        1125.0
      ],
      "min": [
        -25.0,
        0.0,
        -175.0
      ],
      "type": "VEC3"
    },
    {
      "bufferView": 2,
      "byteOffset": 1677888,
      "componentType": 5126,
      "count": 9000,
      "max": [
        1.0,
        1.0,
        1.0
      ],
      "min": [
        -1.0,
        -1.0,
        -1.0
      ],
      "type": "VEC3"
    },
    {
      "bufferView": 1,
      "byteOffset": 523296,
      "componentType": 5126,
      "count": 9000,
      "max": [
        85.0,
        85.0
      ],
      "min": [
        -85.0,
        -2.5
      ],
      "type": "VEC2"
    },
    {
      "bufferView": 0,
      "byteOffset": 810576,
      "componentType": 5125,
      "count": 23760,
      "type": "SCALAR"
    },
    {
      "bufferView": 2,
      "byteOffset": 1785888,
      "componentType": 5126,
      "count": 9000,
      "max": [
        825.0,
        50.0,
        1075.0
      ],
      "min": [
        -25.0,
        -1536.0,
        -125.0
      ],
      "type": "VEC3"
    },
    {
      "bufferView": 2,
      "byteOffset": 1893888,
      "componentType": 5126,
      "count": 9000,
      "max": [
        1.0,
        1.0,
        1.0
      ],
      "min": [
        -1.0,
        -1.0,
        -1.0
      ],
      "type": "VEC3"
    },
    {
      "bufferView": 1,
      "byteOffset": 595296,
      "componentType": 5126,
      "count": 9000,
      "max": [
        120.0,
        120.0
      ],
      "min": [
        -120.0,
        -2.5
      ],
      "type": "VEC2"
    },
    {
      "bufferView": 0,
      "byteOffset": 905616,
      "componentType": 5125,
      "count": 23760,
      "type": "SCALAR"
    },
    {
      "bufferView": 2,
      "byteOffset": 2001888,
      "componentType": 5126,
      "count": 3840,
      "max": [
        810.056640625,
        13.701905250549316,
        900.0
      ],
      "min": [
        -10.613248825073242,
        -1548.548095703125,
        50.0
      ],
      "type": "VEC3"
    },
    {
      "bufferView": 2,
      "byteOffset": 2047968,
      "componentType": 5126,
      "count": 3840,
      "max": [
        1.0,
        1.0,
        1.0
      ],
      "min": [
        -1.0,
        -1.0,
        -1.0
      ],
      "type": "VEC3"
    },
    {
      "bufferView": 1,
      "byteOffset": 667296,
      "componentType": 5126,
      "count": 3840,
      "max": [
        85.0,
        85.0
      ],
      "min": [
        -68.53349304199219,
        -42.5
      ],
      "type": "VEC2"
    },
    {
      "bufferView": 0,
      "byteOffset": 1000656,
      "componentType": 5125,
      "count": 9300,
      "type": "SCALAR"
    },
    {
      "bufferView": 2,
      "byteOffset": 2094048,
      "componentType": 5126,
      "count": 7244,
      "max": [
        835.6063842773438,
        319.9073181152344,
        1101.171630859375
      ],
      "min": [
        -35.60637283325195,
        245.09266662597656,
        -151.17156982421875
      ],
      "type": "VEC3"
    },
    {
      "bufferView": 2,
      "byteOffset": 2180976,
      "componentType": 5126,
      "count": 7244,
      "max": [
        1.0,
        1.0,
        1.0
      ],
      "min": [
        -1.0,
        -1.0,
        -1.0
      ],
      "type": "VEC3"
    },
    {
      "bufferView": 1,
      "byteOffset": 698016,
      "componentType": 5126,
      "count": 7244,
      "max": [
        4.0,
        11.78097152709961
      ],
      "min": [
        -4.0,
        -11.78097152709961
      ],
      "type": "VEC2"
    },
    {
      "bufferView": 0,
      "byteOffset": 1037856,
      "componentType": 5125,
      "count": 29076,
      "type": "SCALAR"
    }
  ],
  "asset": {
    "extras": {
      "author": "txiong (https://sketchfab.com/txiong)",
      "license": "CC-BY-4.0 (http://creativecommons.org/licenses/by/4.0/)",
      "source": "https://sketchfab.com/3d-models/lifter-v2-c9f9f3406a13438a996627f0199a3116",
      "title": "Lifter v2"
    },
    "generator": "Sketchfab-12.59.0",
    "version": "2.0"
  },
  "bufferViews": [
    {
      "buffer": 0,
      "byteLength": 1154160,
      "name": "floatBufferViews",
      "target": 34963
    },
    {
      "buffer": 0,
      "byteLength": 755968,
      "byteOffset": 1154160,
      "byteStride": 8,
      "name": "floatBufferViews",
      "target": 34962
    },
    {
      "buffer": 0,
      "byteLength": 2267904,
      "byteOffset": 1910128,
      "byteStride": 12,
      "name": "floatBufferViews",
      "target": 34962
    }
  ],
  "buffers": [
    {
      "byteLength": 4178032,
      "uri": "scene.bin"
    }
  ],
  "materials": [
    {
      "doubleSided": true,
      "name": "Opaque192192192",
      "pbrMetallicRoughness": {
        "baseColorFactor": [
          0.15426279685608668,
          0.15426279685608668,
          0.15426279685608668,
          1.0
        ],
        "metallicFactor": 0.5,
        "roughnessFactor": 0.6
      }
    },
    {
      "doubleSided": true,
      "name": "Opaque235235235",
      "pbrMetallicRoughness": {
        "baseColorFactor": [
          0.42197790782417816,
          0.42197790782417816,
          0.42197790782417816,
          1.0
        ],
        "roughnessFactor": 0.6
      }
    },
    {
      "doubleSided": true,
      "name": "Opaque254254255",
      "pbrMetallicRoughness": {
        "baseColorFactor": [
          0.5054543983643133,
          0.5054543983643133,
          0.5054543983643133,
          1.0
        ],
        "roughnessFactor": 0.6
      }
    },
    {
      "doubleSided": true,
      "name": "Opaque646464",
      "pbrMetallicRoughness": {
        "baseColorFactor": [
          0.0,
          0.0,
          0.0,
          1.0
        ],
        "metallicFactor": 0.0,
        "roughnessFactor": 0.6
      }
    },
    {
      "doubleSided": true,
      "name": "Steel_-_Satin",
      "pbrMetallicRoughness": {
        "baseColorFactor": [
          0.5054543983643133,
          0.4955203157539352,
          0.4955203157539352,
          1.0
        ],
        "metallicFactor": 0.5,
        "roughnessFactor": 0.6
      }
    }
  ],
  "meshes": [
    {
      "name": "Object_0",
      "primitives": [
        {
          "attributes": {
            "NORMAL": 1,
            "POSITION": 0,
            "TEXCOORD_0": 2
          },
          "indices": 3,
          "material": 0,
          "mode": 4
        }
      ]
    },
    {
      "name": "Object_1",
      "primitives": [
        {
          "attributes": {
            "NORMAL": 5,
            "POSITION": 4,
            "TEXCOORD_0": 6
          },
          "indices": 7,
          "material": 0,
          "mode": 4
        }
      ]
    },
    {
      "name": "Object_2",
      "primitives": [
        {
          "attributes": {
            "NORMAL": 9,
            "POSITION": 8,
            "TEXCOORD_0": 10
          },
          "indices": 11,
          "material": 0,
          "mode": 4
        }
      ]
    },
    {
      "name": "Object_3",
      "primitives": [
        {
          "attributes": {
            "NORMAL": 13,
            "POSITION": 12,
            "TEXCOORD_0": 14
          },
          "indices": 15,
          "material": 1,
          "mode": 4
        }
      ]
    },
    {
      "name": "Object_4",
      "primitives": [
        {
          "attributes": {
            "NORMAL": 17,
            "POSITION": 16,
            "TEXCOORD_0": 18
          },
          "indices": 19,
          "material": 2,
          "mode": 4
        }
      ]
    },
    {
      "name": "Object_5",
      "primitives": [
        {
          "attributes": {
            "NORMAL": 21,
            "POSITION": 20,
            "TEXCOORD_0": 22
          },
          "indices": 23,
          "material": 2,
          "mode": 4
        }
      ]
    },
    {
      "name": "Object_6",
      "primitives": [
        {
          "attributes": {
            "NORMAL": 25,
            "POSITION": 24,
            "TEXCOORD_0": 26
          },
          "indices": 27,
          "material": 2,
          "mode": 4
        }
      ]
    },
    {
      "name": "Object_7",
      "primitives": [
        {
          "attributes": {
            "NORMAL": 29,
            "POSITION": 28,
            "TEXCOORD_0": 30
          },
          "indices": 31,
          "material": 2,
          "mode": 4
        }
      ]
    },
    {
      "name": "Object_8",
      "primitives": [
        {
          "attributes": {
            "NORMAL": 33,
            "POSITION": 32,
            "TEXCOORD_0": 34
          },
          "indices": 35,
          "material": 2,
          "mode": 4
        }
      ]
    },
    {
      "name": "Object_9",
      "primitives": [
        {
          "attributes": {
            "NORMAL": 37,
            "POSITION": 36,
            "TEXCOORD_0": 38
          },
          "indices": 39,
          "material": 2,
          "mode": 4
        }
      ]
    },
    {
      "name": "Object_10",
      "primitives": [
        {
          "attributes": {
            "NORMAL": 41,
            "POSITION": 40,
            "TEXCOORD_0": 42
          },
          "indices": 43,
          "material": 4,
          "mode": 4
        }
      ]
    },
    {
      "name": "Object_11",
      "primitives": [
        {
          "attributes": {
            "NORMAL": 45,
            "POSITION": 44,
            "TEXCOORD_0": 46
          },
          "indices": 47,
          "material": 3,
          "mode": 4
        }
      ]
    }
  ],
  "nodes": [
    {
      "children": [
        1
      ],
      "matrix": [
        1.0,
        0.0,
        0.0,
        0.0,
        0.0,
        2.220446049250313e-16,
        -1.0,
        0.0,
        0.0,
        1.0,
        2.220446049250313e-16,
        0.0,
        0.0,
        0.0,
        0.0,
        1.0
      ],
      "name": "Sketchfab_model"
    },
    {
      "children": [
        2,
        3,
        4,
        5,
        6,
        7,
        8,
        9,
        10,
        11,
        12,
        13
      ],
      "name": "Lifter v2.obj.cleaner.materialmerger.gles"
    },
    {
      "mesh": 0,
      "name": "Object_2"
    },
    {
      "mesh": 1,
      "name": "Object_3"
    },
    {
      "mesh": 2,
      "name": "Object_4"
    },
    {
      "mesh": 3,
      "name": "Object_5"
    },
    {
      "mesh": 4,
      "name": "Object_6"
    },
    {
      "mesh": 5,
      "name": "Object_7"
    },
    {
      "mesh": 6,
      "name": "Object_8"
    },
    {
      "mesh": 7,
      "name": "Object_9"
    },
    {
      "mesh": 8,
      "name": "Object_10"
    },
    {
      "mesh": 9,
      "name": "Object_11"
    },
    {
      "mesh": 10,
      "name": "Object_12"
    },
    {
      "mesh": 11,
      "name": "Object_13"
    }
  ],
  "scene": 0,
  "scenes": [
    {
      "name": "Sketchfab_Scene",
      "nodes": [
        0
      ]
    }
  ]
}
