{
  "accessors": [
    {
      "bufferView": 2,
      "componentType": 5126,
      "count": 9781,
      "max": [
        13.856406211853027,
        696.0,
        492.20001220703125
      ],
      "min": [
        -912.34423828125,
        -94.05000305175781,
        15.819999694824219
      ],
      "type": "VEC3"
    },
    {
      "bufferView": 2,
      "byteOffset": 117372,
      "componentType": 5126,
      "count": 9781,
      "max": [
        1.0,
        1.0,
        1.0
      ],
      "min": [
        -1.0,
        -1.0,
        -1.0
      ],
      "type": "VEC3"
    },
    {
      "bufferView": 1,
      "componentType": 5126,
      "count": 9781,
      "max": [
        129.06161499023438,
        9.071413040161133
      ],
      "min": [
        -129.06161499023438,
        -9.071413040161133
      ],
      "type": "VEC2"
    },
    {
      "bufferView": 0,
      "componentType": 5125,
      "count": 34956,
      "type": "SCALAR"
    },
    {
      "bufferView": 2,
      "byteOffset": 234744,
      "componentType": 5126,
      "count": 9291,
      "max": [
        82.73999786376953,
        696.0,
        492.20001220703125
      ],
      "min": [
        -912.34423828125,
        -94.05000305175781,
        -67.19999694824219
      ],
      "type": "VEC3"
    },
    {
      "bufferView": 2,
      "byteOffset": 346236,
      "componentType": 5126,
      "count": 9291,
      "max": [
        1.0,
        1.0,
        1.0
      ],
      "min": [
        -1.0,
        -1.0,
        -1.0
      ],
      "type": "VEC3"
    },
    {
      "bufferView": 1,
      "byteOffset": 78248,
      "componentType": 5126,
      "count": 9291,
      "max": [
        129.06161499023438,
        9.071413040161133
      ],
      "min": [
        -129.06161499023438,
        -9.071413040161133
      ],
      "type": "VEC2"
    },
    {
      "bufferView": 0,
      "byteOffset": 139824,
      "componentType": 5125,
      "count": 32034,
      "type": "SCALAR"
    },
    {
      "bufferView": 2,
      "byteOffset": 457728,
      "componentType": 5126,
      "count": 9096,
      "max": [
        95.83999633789063,
        -55.95000076293945,
        405.82000732421875
      ],
      "min": [
        -971.260009765625,
        -94.05000305175781,
        15.819999694824219
      ],
      "type": "VEC3"
    },
    {
      "bufferView": 2,
      "byteOffset": 566880,
      "componentType": 5126,
      "count": 9096,
      "max": [
        1.0,
        1.0,
        1.0
      ],
      "min": [
        -1.0,
        -1.0,
        -1.0
      ],
      "type": "VEC3"
    },
    {
      "bufferView": 1,
      "byteOffset": 152576,
      "componentType": 5126,
      "count": 9096,
      "max": [
        129.06161499023438,
        5.984734058380127
      ],
      "min": [
        -129.06161499023438,
        -5.984734058380127
      ],
      "type": "VEC2"
    },
    {
      "bufferView": 0,
      "byteOffset": 267960,
      "componentType": 5125,
      "count": 33786,
      "type": "SCALAR"
    },
    {
      "bufferView": 2,
      "byteOffset": 676032,
      "componentType": 5126,
      "count": 9090,
      "max": [
        100.29000091552734,
        520.0,
        430.0
      ],
      "min": [
        -974.7100219726563,
        -90.0,
        -2.700000047683716
      ],
      "type": "VEC3"
    },
    {
      "bufferView": 2,
      "byteOffset": 785112,
      "componentType": 5126,
      "count": 9090,
      "max": [
        1.0,
        1.0,
        1.0
      ],
      "min": [
        -1.0,
        -1.0,
        -1.0
      ],
      "type": "VEC3"
    },
    {
      "bufferView": 1,
      "byteOffset": 225344,
      "componentType": 5126,
      "count": 9090,
      "max": [
        300.0,
        300.0
      ],
      "min": [
        -300.0,
        -107.5
      ],
      "type": "VEC2"
    },
    {
      "bufferView": 0,
      "byteOffset": 403104,
      "componentType": 5125,
      "count": 28800,
      "type": "SCALAR"
    },
    {
      "bufferView": 2,
      "byteOffset": 894192,
      "componentType": 5126,
      "count": 9604,
      "max": [
        65.0,
        515.5,
        430.0
      ],
      "min": [
        -940.0,
        0.0,
        -5.0
      ],
      "type": "VEC3"
    },
    {
      "bufferView": 2,
      "byteOffset": 1009440,
      "componentType": 5126,
      "count": 9604,
      "max": [
        1.0,
        1.0,
        1.0
      ],
      "min": [
        -1.0,
        -1.0,
        -1.0
      ],
      "type": "VEC3"
    },
    {
      "bufferView": 1,
      "byteOffset": 298064,
      "componentType": 5126,
      "count": 9604,
      "max": [
        49.75,
        49.75
      ],
      "min": [
        -49.75,
        -49.75
      ],
      "type": "VEC2"
    },
    {
      "bufferView": 0,
      "byteOffset": 518304,
      "componentType": 5125,
      "count": 36732,
      "type": "SCALAR"
    },
    {
      "bufferView": 2,
      "byteOffset": 1124688,
      "componentType": 5126,
      "count": 3146,
      "max": [
        100.29000091552734,
        515.5,
        425.0
      ],
      "min": [
        -974.7100219726563,
        -90.0,
        -2.700000047683716
      ],
      "type": "VEC3"
    },
    {
      "bufferView": 2,
      "byteOffset": 1162440,
      "componentType": 5126,
      "count": 3146,
      "max": [
        1.0,
        1.0,
        1.0
      ],
      "min": [
        -1.0,
        -1.0,
        -1.0
      ],
      "type": "VEC3"
    },
    {
      "bufferView": 1,
      "byteOffset": 374896,
      "componentType": 5126,
      "count": 3146,
      "max": [
        300.0,
        300.0
      ],
      "min": [
        -300.0,
        -107.5
      ],
      "type": "VEC2"
    },
    {
      "bufferView": 0,
      "byteOffset": 665232,
      "componentType": 5125,
      "count": 9156,
      "type": "SCALAR"
    },
    {
      "bufferView": 2,
      "byteOffset": 1200192,
      "componentType": 5126,
      "count": 8598,
      "max": [
        -363.2099914550781,
        253.23223876953125,
        456.5000305175781
      ],
      "min": [
        -511.2099914550781,
        163.23223876953125,
        -31.500024795532227
      ],
      "type": "VEC3"
    },
    {
      "bufferView": 2,
      "byteOffset": 1303368,
      "componentType": 5126,
      "count": 8598,
      "max": [
        1.0,
        1.0,
        1.0
      ],
      "min": [
        -1.0,
        -1.0,
        -1.0
      ],
      "type": "VEC3"
    },
    {
      "bufferView": 1,
      "byteOffset": 400064,
      "componentType": 5126,
      "count": 8598,
      "max": [
        50000.015625,
        9.00369930267334
      ],
      "min": [
        -50000.00390625,
        -50000.015625
      ],
      "type": "VEC2"
    },
    {
      "bufferView": 0,
      "byteOffset": 701856,
      "componentType": 5125,
      "count": 33534,
      "type": "SCALAR"
    },
    {
      "bufferView": 2,
      "byteOffset": 1406544,
      "componentType": 5126,
      "count": 2866,
      "max": [
        -462.2099914550781,
        253.23223876953125,
        456.5000305175781
      ],
      "min": [
        -506.2099914550781,
        163.23223876953125,
        434.0
      ],
      "type": "VEC3"
    },
    {
      "bufferView": 2,
      "byteOffset": 1440936,
      "componentType": 5126,
      "count": 2866,
      "max": [
        1.0,
        1.0,
        1.0
      ],
      "min": [
        -1.0,
        -1.0,
        -1.0
      ],
      "type": "VEC3"
    },
    {
      "bufferView": 1,
      "byteOffset": 468848,
      "componentType": 5126,
      "count": 2866,
      "max": [
        50000.015625,
        9.00369930267334
      ],
      "min": [
        -50000.00390625,
        -50000.015625
      ],
      "type": "VEC2"
    },
    {
      "bufferView": 0,
      "byteOffset": 835992,
      "componentType": 5125,
      "count": 11178,
      "type": "SCALAR"
    },
    {
      "bufferView": 2,
      "byteOffset": 1475328,
      "componentType": 5126,
      "count": 3568,
      "max": [
        105.29000091552734,
        513.2322387695313,
        445.0
      ],
      "min": [
        -979.7100219726563,
        -96.76776885986328,
        -20.0
      ],
      "type": "VEC3"
    },
    {
      "bufferView": 2,
      "byteOffset": 1518144,
      "componentType": 5126,
      "count": 3568,
      "max": [
        1.0,
        1.0,
        1.0
      ],
      "min": [
        -1.0,
        -1.0,
        -1.0
      ],
      "type": "VEC3"
    },
    {
      "bufferView": 1,
      "byteOffset": 491776,
      "componentType": 5126,
      "count": 3568,
      "max": [
        56.646446228027344,
        30.0
      ],
      "min": [
        -30.073223114013672,
        -30.0
      ],
      "type": "VEC2"
    },
    {
      "bufferView": 0,
      "byteOffset": 880704,
      "componentType": 5125,
      "count": 9216,
      "type": "SCALAR"
    }
  ],
  "asset": {
    "extras": {
      "author": "txiong (https://sketchfab.com/txiong)",
      "license": "CC-BY-4.0 (http://creativecommons.org/licenses/by/4.0/)",
      "source": "https://sketchfab.com/3d-models/conveyor-2ad6a02d5a744fd2b7b2890ef93c0d01",
      "title": "Conveyor"
    },
    "generator": "Sketchfab-12.56.0",
    "version": "2.0"
  },
  "bufferViews": [
    {
      "buffer": 0,
      "byteLength": 917568,
      "name": "floatBufferViews",
      "target": 34963
    },
    {
      "buffer": 0,
      "byteLength": 520320,
      "byteOffset": 917568,
      "byteStride": 8,
      "name": "floatBufferViews",
      "target": 34962
    },
    {
      "buffer": 0,
      "byteLength": 1560960,
      "byteOffset": 1437888,
      "byteStride": 12,
      "name": "floatBufferViews",
      "target": 34962
    }
  ],
  "buffers": [
    {
      "byteLength": 2998848,
      "uri": "scene.bin"
    }
  ],
  "materials": [
    {
      "doubleSided": true,
      "name": "Opaque178178178",
      "pbrMetallicRoughness": {
        "baseColorFactor": [
          0.35153259950043925,
          0.31398871337571754,
          0.31398871337571754,
          1.0
        ],
        "metallicFactor": 0.75,
        "roughnessFactor": 0.6
      }
    },
    {
      "doubleSided": true,
      "name": "Opaque555",
      "pbrMetallicRoughness": {
        "baseColorFactor": [
          0.0,
          0.0,
          0.0,
          1.0
        ],
        "metallicFactor": 0.0,
        "roughnessFactor": 0.6
      }
    },
    {
      "doubleSided": true,
      "name": "Opaque9211177",
      "pbrMetallicRoughness": {
        "baseColorFactor": [
          0.019708368943048015,
          0.0176304231321915,
          0.0176304231321915,
          1.0
        ],
        "metallicFactor": 0.5,
        "roughnessFactor": 0.6
      }
    },
    {
      "doubleSided": true,
      "name": "Steel_-_Satin",
      "pbrMetallicRoughness": {
        "metallicFactor": 0.5,
        "roughnessFactor": 0.6
      }
    }
  ],
  "meshes": [
    {
      "name": "Object_0",
      "primitives": [
        {
          "attributes": {
            "NORMAL": 1,
            "POSITION": 0,
            "TEXCOORD_0": 2
          },
          "indices": 3,
          "material": 0,
          "mode": 4
        }
      ]
    },
    {
      "name": "Object_1",
      "primitives": [
        {
          "attributes": {
            "NORMAL": 5,
            "POSITION": 4,
            "TEXCOORD_0": 6
          },
          "indices": 7,
          "material": 0,
          "mode": 4
        }
      ]
    },
    {
      "name": "Object_2",
      "primitives": [
        {
          "attributes": {
            "NORMAL": 9,
            "POSITION": 8,
            "TEXCOORD_0": 10
          },
          "indices": 11,
          "material": 0,
          "mode": 4
        }
      ]
    },
    {
      "name": "Object_3",
      "primitives": [
        {
          "attributes": {
            "NORMAL": 13,
            "POSITION": 12,
            "TEXCOORD_0": 14
          },
          "indices": 15,
          "material": 2,
          "mode": 4
        }
      ]
    },
    {
      "name": "Object_4",
      "primitives": [
        {
          "attributes": {
            "NORMAL": 17,
            "POSITION": 16,
            "TEXCOORD_0": 18
          },
          "indices": 19,
          "material": 2,
          "mode": 4
        }
      ]
    },
    {
      "name": "Object_5",
      "primitives": [
        {
          "attributes": {
            "NORMAL": 21,
            "POSITION": 20,
            "TEXCOORD_0": 22
          },
          "indices": 23,
          "material": 2,
          "mode": 4
        }
      ]
    },
    {
      "name": "Object_6",
      "primitives": [
        {
          "attributes": {
            "NORMAL": 25,
            "POSITION": 24,
            "TEXCOORD_0": 26
          },
          "indices": 27,
          "material": 1,
          "mode": 4
        }
      ]
    },
    {
      "name": "Object_7",
      "primitives": [
        {
          "attributes": {
            "NORMAL": 29,
            "POSITION": 28,
            "TEXCOORD_0": 30
          },
          "indices": 31,
          "material": 1,
          "mode": 4
        }
      ]
    },
    {
      "name": "Object_8",
      "primitives": [
        {
          "attributes": {
            "NORMAL": 33,
            "POSITION": 32,
            "TEXCOORD_0": 34
          },
          "indices": 35,
          "material": 3,
          "mode": 4
        }
      ]
    }
  ],
  "nodes": [
    {
      "children": [
        1
      ],
      "matrix": [
        1.0,
        0.0,
        0.0,
        0.0,
        0.0,
        2.220446049250313e-16,
        -1.0,
        0.0,
        0.0,
        1.0,
        2.220446049250313e-16,
        0.0,
        0.0,
        0.0,
        0.0,
        1.0
      ],
      "name": "Sketchfab_model"
    },
    {
      "children": [
        2,
        3,
        4,
        5,
        6,
        7,
        8,
        9,
        10
      ],
      "name": "Conveyor v4.obj.cleaner.materialmerger.gles"
    },
    {
      "mesh": 0,
      "name": "Object_2"
    },
    {
      "mesh": 1,
      "name": "Object_3"
    },
    {
      "mesh": 2,
      "name": "Object_4"
    },
    {
      "mesh": 3,
      "name": "Object_5"
    },
    {
      "mesh": 4,
      "name": "Object_6"
    },
    {
      "mesh": 5,
      "name": "Object_7"
    },
    {
      "mesh": 6,
      "name": "Object_8"
    },
    {
      "mesh": 7,
      "name": "Object_9"
    },
    {
      "mesh": 8,
      "name": "Object_10"
    }
  ],
  "scene": 0,
  "scenes": [
    {
      "name": "Sketchfab_Scene",
      "nodes": [
        0
      ]
    }
  ]
}
