<svg xmlns="http://www.w3.org/2000/svg" xmlns:xlink="http://www.w3.org/1999/xlink" width="73" height="133.3" viewBox="0 0 100% 100%">
  <defs>
    <clipPath id="clip-lift">
      <rect width="100%" height="100%" />
    </clipPath>
  </defs>
  <g id="lift" clip-path="url(#clip-lift)">
    <g id="Group_2344" data-name="Group 2344" transform="translate(1.5 1.3)">
      <g id="Path_4272" data-name="Path 4272" transform="translate(-36.147)" fill="#4e7bff">
        <path d="M 105.5637741088867 73.68251800537109 L 37.04801177978516 73.68251800537109 C 36.19278335571289 73.68251800537109 35.49700164794922 72.960693359375 35.49700164794922 72.07346343994141 L 35.49700164794922 3.995804309844971 C 35.49700164794922 1.434104442596436 37.4723014831543 -0.6499955654144287 39.90027236938477 -0.6499955654144287 L 102.7114944458008 -0.6499955654144287 C 105.1394729614258 -0.6499955654144287 107.1147842407227 1.434104442596436 107.1147842407227 3.995804309844971 L 107.1147842407227 72.07346343994141 C 107.1147842407227 72.960693359375 106.4190063476562 73.68251800537109 105.5637741088867 73.68251800537109 Z M 38.59900283813477 70.46441650390625 L 104.0127639770508 70.46441650390625 L 104.0127639770508 3.995804309844971 C 104.0127639770508 3.208964347839355 103.4290161132812 2.568814516067505 102.7114944458008 2.568814516067505 L 39.90027236938477 2.568814516067505 C 39.18275451660156 2.568814516067505 38.59900283813477 3.208964347839355 38.59900283813477 3.995804309844971 L 38.59900283813477 70.46441650390625 Z" stroke="none"/>
        <path d="M 105.5637741088867 73.03250885009766 C 106.0618133544922 73.03250885009766 106.4647827148438 72.60286712646484 106.4647827148438 72.07346343994141 L 106.4647827148438 3.995810031890869 C 106.4647827148438 1.792698860168457 104.7812347412109 -1.130506689150934e-06 102.7114944458008 -1.130506689150934e-06 L 39.9002799987793 -1.130506689150934e-06 C 37.83052444458008 -1.130506689150934e-06 36.14700317382812 1.792698860168457 36.14700317382812 3.995810031890869 L 36.14700317382812 72.07346343994141 C 36.14700317382812 72.60286712646484 36.54999160766602 73.03250885009766 37.04800415039062 73.03250885009766 L 105.5637741088867 73.03250885009766 M 39.9002799987793 1.918821096420288 L 102.7114944458008 1.918821096420288 C 103.787223815918 1.918821096420288 104.6627731323242 2.850076675415039 104.6627731323242 3.995810031890869 L 104.6627731323242 71.11441040039062 L 37.94900512695312 71.11441040039062 L 37.94900512695312 3.995810031890869 C 37.94900512695312 2.850076675415039 38.82458114624023 1.918821096420288 39.9002799987793 1.918821096420288 M 105.5637741088867 74.33251190185547 L 37.04800415039062 74.33251190185547 C 35.83436965942383 74.33251190185547 34.84700393676758 73.31910705566406 34.84700393676758 72.07346343994141 L 34.84700393676758 3.995810031890869 C 34.84700393676758 1.075687766075134 37.1138916015625 -1.30000114440918 39.9002799987793 -1.30000114440918 L 102.7114944458008 -1.30000114440918 C 105.4978790283203 -1.30000114440918 107.764778137207 1.075687766075134 107.764778137207 3.995810031890869 L 107.764778137207 72.07346343994141 C 107.764778137207 73.31910705566406 106.7774124145508 74.33251190185547 105.5637741088867 74.33251190185547 Z M 39.24900436401367 69.81440734863281 L 103.3627700805664 69.81440734863281 L 103.3627700805664 3.995810031890869 C 103.3627700805664 3.57464337348938 103.0645294189453 3.218821048736572 102.7114944458008 3.218821048736572 L 39.9002799987793 3.218821048736572 C 39.54724884033203 3.218821048736572 39.24900436401367 3.57464337348938 39.24900436401367 3.995810031890869 L 39.24900436401367 69.81440734863281 Z" stroke="none" fill="#4e7bff"/>
      </g>
      <g id="Path_4273" data-name="Path 4273" transform="translate(-36.148 -28.804)" fill="#4e7bff">
        <path d="M 102.5615310668945 160.4544677734375 L 40.05558013916016 160.4544677734375 C 37.54418182373047 160.4544677734375 35.50099945068359 158.6312103271484 35.50099945068359 156.3901062011719 L 35.50099945068359 100.5948638916016 C 35.50099945068359 99.80202484130859 36.19678115844727 99.15699768066406 37.05202102661133 99.15699768066406 L 105.5657730102539 99.15699768066406 C 106.4209976196289 99.15699768066406 107.1167831420898 99.80202484130859 107.1167831420898 100.5948638916016 L 107.1167831420898 156.3901062011719 C 107.1167831420898 158.6312103271484 105.0733032226562 160.4544677734375 102.5615310668945 160.4544677734375 Z M 38.60301971435547 102.0327682495117 L 38.60301971435547 156.3901062011719 C 38.60301971435547 157.0455017089844 39.25464248657227 157.5786895751953 40.05558013916016 157.5786895751953 L 102.5615310668945 157.5786895751953 C 103.3624877929688 157.5786895751953 104.0141220092773 157.0455017089844 104.0141220092773 156.3901062011719 L 104.0141220092773 102.0327682495117 L 38.60301971435547 102.0327682495117 Z" stroke="none"/>
        <path d="M 102.5615310668945 159.8044738769531 C 104.7150039672852 159.8044738769531 106.4667816162109 158.2726135253906 106.4667816162109 156.3901062011719 L 106.4667816162109 100.5948638916016 C 106.4667816162109 100.1599655151367 106.0631637573242 99.80699157714844 105.5657730102539 99.80699157714844 L 37.05202102661133 99.80699157714844 C 36.55398178100586 99.80699157714844 36.1510009765625 100.1599655151367 36.1510009765625 100.5948638916016 L 36.1510009765625 156.3901062011719 C 36.1510009765625 158.2726135253906 37.9028205871582 159.8044738769531 40.05558013916016 159.8044738769531 L 102.5615310668945 159.8044738769531 M 37.95302200317383 101.3827667236328 L 104.6641235351562 101.3827667236328 L 104.6641235351562 156.3901062011719 C 104.6641235351562 157.4033508300781 103.7209243774414 158.2286987304688 102.5615310668945 158.2286987304688 L 40.05558013916016 158.2286987304688 C 38.89619064331055 158.2286987304688 37.95302200317383 157.4033508300781 37.95302200317383 156.3901062011719 L 37.95302200317383 101.3827667236328 M 102.5615310668945 161.1044769287109 L 40.05558013916016 161.1044769287109 C 37.18576049804688 161.1044769287109 34.85100173950195 158.9896087646484 34.85100173950195 156.3901062011719 L 34.85100173950195 100.5948638916016 C 34.85100173950195 99.443603515625 35.83837127685547 98.50699615478516 37.05202102661133 98.50699615478516 L 105.5657730102539 98.50699615478516 C 106.779411315918 98.50699615478516 107.7667846679688 99.443603515625 107.7667846679688 100.5948638916016 L 107.7667846679688 156.3901062011719 C 107.7667846679688 158.9896087646484 105.4317092895508 161.1044769287109 102.5615310668945 161.1044769287109 Z M 39.25302124023438 102.6827621459961 L 39.25302124023438 156.3901062011719 C 39.25302124023438 156.6443481445312 39.59624099731445 156.9286956787109 40.05558013916016 156.9286956787109 L 102.5615310668945 156.9286956787109 C 103.0208892822266 156.9286956787109 103.3641204833984 156.6443481445312 103.3641204833984 156.3901062011719 L 103.3641204833984 102.6827621459961 L 39.25302124023438 102.6827621459961 Z" stroke="none" fill="#4e7bff"/>
      </g>
      <path id="Path_4279" data-name="Path 4279" d="M29.681,13.974H.637c-.352,0-.637-.4-.637-.9V.9C0,.4.285,0,.637,0H29.681c.352,0,.637.4.637.9V13.073c0,.5-.285.9-.637.9m-28.407-1.8h27.77V1.8H1.274Z" transform="translate(41.124 21.333) rotate(90)" fill="#4e7bff" stroke="#4e7bff" stroke-width="0.6"/>
      <path id="Path_4280" data-name="Path 4280" d="M121.636,20.156h-4.877a.43.43,0,0,1-.416-.443V14.521a.43.43,0,0,1,.416-.443h4.877a.43.43,0,0,1,.416.443v5.192a.43.43,0,0,1-.416.443m-4.461-.886h4.045V14.964h-4.045Z" transform="translate(-58.753 13.608)" fill="#4e7bff" stroke="#4e7bff" stroke-width="0.4"/>
      <path id="Path_4281" data-name="Path 4281" d="M121.636,44.021h-4.877a.43.43,0,0,1-.416-.443V38.386a.43.43,0,0,1,.416-.443h4.877a.43.43,0,0,1,.416.443v5.192a.43.43,0,0,1-.416.443m-4.461-.886h4.045V38.829h-4.045Z" transform="translate(-58.753 -1.508)" fill="#4e7bff" stroke="#4e7bff" stroke-width="0.4"/>
      <path id="Path_4282" data-name="Path 4282" d="M127.453,84.583H117.216a.919.919,0,0,1-.874-.959V76.653a.919.919,0,0,1,.874-.959h10.237a.919.919,0,0,1,.874.959v6.971a.919.919,0,0,1-.874.959m-9.68-1.325h9.145V77h-9.145Z" transform="translate(-72.978 -45.338)" fill="#4e7bff" stroke="#4e7bff" stroke-width="0.4"/>
      <g id="Path_4315" data-name="Path 4315" transform="translate(-89.192 -39.088)" fill="#4e7bff">
        <path d="M 129.2966461181641 82.75824737548828 L 117.3608703613281 82.75824737548828 C 117.0196304321289 82.75824737548828 116.7420120239258 82.5074462890625 116.7420120239258 82.19918060302734 L 116.7420120239258 76.65303039550781 C 116.7420120239258 76.34476470947266 117.0196304321289 76.09398651123047 117.3608703613281 76.09398651123047 L 129.2966461181641 76.09398651123047 C 129.6379241943359 76.09398651123047 129.9155731201172 76.34476470947266 129.9155731201172 76.65303039550781 L 129.9155731201172 82.19918060302734 C 129.9155731201172 82.5074462890625 129.6379241943359 82.75824737548828 129.2966461181641 82.75824737548828 Z M 117.9797821044922 77.21212005615234 L 117.9797821044922 77.61211395263672 L 117.9797821044922 81.24011993408203 L 117.9797821044922 81.64011383056641 L 118.3797760009766 81.64011383056641 L 128.2778625488281 81.64011383056641 L 128.6778564453125 81.64011383056641 L 128.6778564453125 81.24011993408203 L 128.6778564453125 77.61211395263672 L 128.6778564453125 77.21212005615234 L 128.2778625488281 77.21212005615234 L 118.3797760009766 77.21212005615234 L 117.9797821044922 77.21212005615234 Z" stroke="none"/>
        <path d="M 129.2966461181641 82.35824584960938 C 129.4256591796875 82.35824584960938 129.5155639648438 82.2744140625 129.5155639648438 82.19918060302734 L 129.5155639648438 76.65303039550781 C 129.5155639648438 76.57780456542969 129.4256591796875 76.49398803710938 129.2966461181641 76.49398803710938 L 117.3608703613281 76.49398803710938 C 117.2318878173828 76.49398803710938 117.1420059204102 76.57780456542969 117.1420059204102 76.65303039550781 L 117.1420059204102 82.19918060302734 C 117.1420059204102 82.2744140625 117.2318878173828 82.35824584960938 117.3608703613281 82.35824584960938 L 129.2966461181641 82.35824584960938 M 117.5797805786133 76.81211853027344 L 129.0778656005859 76.81211853027344 L 129.0778656005859 82.04011535644531 L 117.5797805786133 82.04011535644531 L 117.5797805786133 76.81211853027344 M 129.2966461181641 83.15824890136719 L 117.3608703613281 83.15824890136719 C 116.797721862793 83.15824890136719 116.3420104980469 82.72927856445312 116.3420104980469 82.19918060302734 L 116.3420104980469 76.65303039550781 C 116.3420104980469 76.12364959716797 116.797721862793 75.69398498535156 117.3608703613281 75.69398498535156 L 129.2966461181641 75.69398498535156 C 129.85986328125 75.69398498535156 130.3155670166016 76.12364959716797 130.3155670166016 76.65303039550781 L 130.3155670166016 82.19918060302734 C 130.3155670166016 82.72927856445312 129.85986328125 83.15824890136719 129.2966461181641 83.15824890136719 Z M 118.3797760009766 77.61211395263672 L 118.3797760009766 81.24011993408203 L 128.2778625488281 81.24011993408203 L 128.2778625488281 77.61211395263672 L 118.3797760009766 77.61211395263672 Z" stroke="none" fill="#4e7bff"/>
      </g>
      <rect id="Rectangle_2720" data-name="Rectangle 2720" width="13.026" height="29.948" transform="translate(28.097 84.85)" fill="none" stroke="#4e7bff" stroke-linejoin="round" stroke-width="2.5"/>
    </g>
  </g>
</svg>
