<svg xmlns="http://www.w3.org/2000/svg" xmlns:xlink="http://www.w3.org/1999/xlink" width="108" height="132" viewBox="0 0 100% 100%">
  <defs>
    <clipPath id="clip-man">
      <rect width="100%" height="100%"/>
    </clipPath>
  </defs>
  <g id="man" clip-path="url(#clip-man)">
    <g id="Group_2346" data-name="Group 2346" transform="translate(1.3 0)">
      <g id="Path_4103" data-name="Path 4103" transform="translate(-35.084 -47.791)" fill="#4e7bff">
        <path d="M 139.2195129394531 179.4410400390625 L 35.92891311645508 179.4410400390625 C 35.09064483642578 179.4410400390625 34.43400573730469 178.6455230712891 34.43400573730469 177.6299743652344 L 34.43400573730469 117.5299377441406 C 34.43400573730469 116.5138854980469 35.09064483642578 115.7179794311523 35.92891311645508 115.7179794311523 L 139.2195129394531 115.7179794311523 C 140.0577850341797 115.7179794311523 140.7144470214844 116.5138854980469 140.7144470214844 117.5299377441406 L 140.7144470214844 177.6299743652344 C 140.7144470214844 178.6455230712891 140.0577850341797 179.4410400390625 139.2195129394531 179.4410400390625 Z M 37.42383193969727 175.8189697265625 L 137.7245635986328 175.8189697265625 L 137.7245635986328 119.3401031494141 L 37.42383193969727 119.3401031494141 L 37.42383193969727 175.8189697265625 Z" stroke="none"/>
        <path d="M 139.2195129394531 178.7910461425781 C 139.6865539550781 178.7910461425781 140.0644378662109 178.2709655761719 140.0644378662109 177.6299743652344 L 140.0644378662109 117.5299453735352 C 140.0644378662109 116.8881530761719 139.6865539550781 116.3679885864258 139.2195129394531 116.3679885864258 L 35.92890548706055 116.3679885864258 C 35.4619026184082 116.3679885864258 35.08400344848633 116.8881530761719 35.08400344848633 117.5299453735352 L 35.08400344848633 177.6299743652344 C 35.08400344848633 178.2709655761719 35.4619026184082 178.7910461425781 35.92890548706055 178.7910461425781 L 139.2195129394531 178.7910461425781 M 36.77383422851562 118.6901016235352 L 138.3745574951172 118.6901016235352 L 138.3745574951172 176.4689636230469 L 36.77383422851562 176.4689636230469 L 36.77383422851562 118.6901016235352 M 139.2195129394531 180.0910491943359 L 35.92890548706055 180.0910491943359 C 34.72616195678711 180.0910491943359 33.78400421142578 179.010009765625 33.78400421142578 177.6299743652344 L 33.78400421142578 117.5299453735352 C 33.78400421142578 116.1493988037109 34.72616195678711 115.067985534668 35.92890548706055 115.067985534668 L 139.2195129394531 115.067985534668 C 140.4222717285156 115.067985534668 141.3644256591797 116.1493988037109 141.3644256591797 117.5299453735352 L 141.3644256591797 177.6299743652344 C 141.3644256591797 179.010009765625 140.4222717285156 180.0910491943359 139.2195129394531 180.0910491943359 Z M 38.07383346557617 175.1689758300781 L 137.0745544433594 175.1689758300781 L 137.0745544433594 119.9900970458984 L 38.07383346557617 119.9900970458984 L 38.07383346557617 175.1689758300781 Z" stroke="none" fill="#4e7bff"/>
      </g>
      <path id="Path_4105" data-name="Path 4105" d="M118.448,178.791a1.128,1.128,0,0,1-1.091-1.161v-60.1a1.093,1.093,0,1,1,2.182,0v60.1a1.128,1.128,0,0,1-1.091,1.161" transform="translate(-66.154 -47.791)" fill="#4e7bff" stroke="#4e7bff" stroke-width="0.4"/>
      <g id="Path_4106" data-name="Path 4106" transform="translate(-70.588 -50.473)" fill="#4e7bff">
        <path d="M 133.5367279052734 164.2366790771484 L 128.3307952880859 164.2366790771484 C 127.9498901367188 164.2366790771484 127.6399993896484 163.8949127197266 127.6399993896484 163.4748077392578 L 127.6399993896484 137.0480499267578 C 127.6399993896484 136.6283874511719 127.9498901367188 136.2869720458984 128.3307952880859 136.2869720458984 L 133.5367279052734 136.2869720458984 C 133.9176330566406 136.2869720458984 134.2275238037109 136.6283874511719 134.2275238037109 137.0480499267578 L 134.2275238037109 163.4748077392578 C 134.2275238037109 163.8949127197266 133.9176330566406 164.2366790771484 133.5367279052734 164.2366790771484 Z M 129.0215759277344 137.8090972900391 L 129.0215759277344 138.2090911865234 L 129.0215759277344 162.3136749267578 L 129.0215759277344 162.7136688232422 L 129.4215850830078 162.7136688232422 L 132.4450836181641 162.7136688232422 L 132.8450775146484 162.7136688232422 L 132.8450775146484 162.3136749267578 L 132.8450775146484 138.2090911865234 L 132.8450775146484 137.8090972900391 L 132.4450836181641 137.8090972900391 L 129.4215850830078 137.8090972900391 L 129.0215759277344 137.8090972900391 Z" stroke="none"/>
        <path d="M 133.5367279052734 163.836669921875 C 133.6943511962891 163.836669921875 133.8275146484375 163.6709594726562 133.8275146484375 163.4748077392578 L 133.8275146484375 137.0480499267578 C 133.8275146484375 136.8523254394531 133.6943511962891 136.6869812011719 133.5367279052734 136.6869812011719 L 128.3307952880859 136.6869812011719 C 128.1731719970703 136.6869812011719 128.0400085449219 136.8523254394531 128.0400085449219 137.0480499267578 L 128.0400085449219 163.4748077392578 C 128.0400085449219 163.6709594726562 128.1731719970703 163.836669921875 128.3307952880859 163.836669921875 L 133.5367279052734 163.836669921875 M 128.62158203125 137.4090881347656 L 133.2450866699219 137.4090881347656 L 133.2450866699219 163.1136779785156 L 128.62158203125 163.1136779785156 L 128.62158203125 137.4090881347656 M 133.5367279052734 164.6366729736328 L 128.3307952880859 164.6366729736328 C 127.7286834716797 164.6366729736328 127.2399978637695 164.1165618896484 127.2399978637695 163.4748077392578 L 127.2399978637695 137.0480499267578 C 127.2399978637695 136.4071502685547 127.7286834716797 135.8869781494141 128.3307952880859 135.8869781494141 L 133.5367279052734 135.8869781494141 C 134.1388397216797 135.8869781494141 134.6275177001953 136.4071502685547 134.6275177001953 137.0480499267578 L 134.6275177001953 163.4748077392578 C 134.6275177001953 164.1165618896484 134.1388397216797 164.6366729736328 133.5367279052734 164.6366729736328 Z M 129.4215850830078 138.2090911865234 L 129.4215850830078 162.3136749267578 L 132.4450836181641 162.3136749267578 L 132.4450836181641 138.2090911865234 L 129.4215850830078 138.2090911865234 Z" stroke="none" fill="#4e7bff"/>
      </g>
      <g id="Path_4107" data-name="Path 4107" transform="translate(-60.498 -50.473)" fill="#4e7bff">
        <path d="M 107.3477325439453 164.2366790771484 L 102.1417846679688 164.2366790771484 C 101.7608871459961 164.2366790771484 101.4510040283203 163.8949127197266 101.4510040283203 163.4748077392578 L 101.4510040283203 137.0480499267578 C 101.4510040283203 136.6283874511719 101.7608871459961 136.2869720458984 102.1417846679688 136.2869720458984 L 107.3477325439453 136.2869720458984 C 107.7286376953125 136.2869720458984 108.0385284423828 136.6283874511719 108.0385284423828 137.0480499267578 L 108.0385284423828 163.4748077392578 C 108.0385284423828 163.8949127197266 107.7286376953125 164.2366790771484 107.3477325439453 164.2366790771484 Z M 102.8325729370117 137.8090972900391 L 102.8325729370117 138.2090911865234 L 102.8325729370117 162.3136749267578 L 102.8325729370117 162.7136688232422 L 103.2325744628906 162.7136688232422 L 106.2569732666016 162.7136688232422 L 106.6569747924805 162.7136688232422 L 106.6569747924805 162.3136749267578 L 106.6569747924805 138.2090911865234 L 106.6569747924805 137.8090972900391 L 106.2569732666016 137.8090972900391 L 103.2325744628906 137.8090972900391 L 102.8325729370117 137.8090972900391 Z" stroke="none"/>
        <path d="M 107.3477325439453 163.836669921875 C 107.5053558349609 163.836669921875 107.6385269165039 163.6709594726562 107.6385269165039 163.4748077392578 L 107.6385269165039 137.0480499267578 C 107.6385269165039 136.8523254394531 107.5053558349609 136.6869812011719 107.3477325439453 136.6869812011719 L 102.1417846679688 136.6869812011719 C 101.9841690063477 136.6869812011719 101.8510055541992 136.8523254394531 101.8510055541992 137.0480499267578 L 101.8510055541992 163.4748077392578 C 101.8510055541992 163.6709594726562 101.9841690063477 163.836669921875 102.1417846679688 163.836669921875 L 107.3477325439453 163.836669921875 M 102.4325790405273 137.4090881347656 L 107.0569763183594 137.4090881347656 L 107.0569763183594 163.1136779785156 L 102.4325790405273 163.1136779785156 L 102.4325790405273 137.4090881347656 M 107.3477325439453 164.6366729736328 L 102.1417846679688 164.6366729736328 C 101.5388641357422 164.6366729736328 101.0510025024414 164.1165618896484 101.0510025024414 163.4748077392578 L 101.0510025024414 137.0480499267578 C 101.0510025024414 136.4071502685547 101.5388641357422 135.8869781494141 102.1417846679688 135.8869781494141 L 107.3477325439453 135.8869781494141 C 107.9498748779297 135.8869781494141 108.4385299682617 136.4071502685547 108.4385299682617 137.0480499267578 L 108.4385299682617 163.4748077392578 C 108.4385299682617 164.1165618896484 107.9498748779297 164.6366729736328 107.3477325439453 164.6366729736328 Z M 103.2325744628906 138.2090911865234 L 103.2325744628906 162.3136749267578 L 106.2569732666016 162.3136749267578 L 106.2569732666016 138.2090911865234 L 103.2325744628906 138.2090911865234 Z" stroke="none" fill="#4e7bff"/>
      </g>
      <g id="Path_4316" data-name="Path 4316" transform="translate(0 9.994)" fill="#4e7bff">
        <path d="M 0.8417524695396423 58.45258712768555 C 0.6332324743270874 58.45258712768555 0.4000057876110077 58.12710571289062 0.4000057876110077 57.69150543212891 L 0.4000057876110077 39.33708190917969 C 0.4000057876110077 38.90148162841797 0.6332324743270874 38.57600021362305 0.8417524695396423 38.57600021362305 L 104.1386871337891 38.57600021362305 C 104.3472213745117 38.57600021362305 104.5804443359375 38.90148162841797 104.5804443359375 39.33708190917969 L 104.5804443359375 57.69150543212891 C 104.5804443359375 58.12709426879883 104.3472213745117 58.45256042480469 104.1386871337891 58.45256042480469 L 0.8417524695396423 58.45258712768555 Z M 1.283499121665955 40.09812164306641 L 1.283499121665955 40.49811935424805 L 1.283499121665955 56.53045272827148 L 1.283499121665955 56.93045425415039 L 1.683499097824097 56.93045425415039 L 103.2963256835938 56.93045425415039 L 103.6963272094727 56.93045425415039 L 103.6963272094727 56.53045272827148 L 103.6963272094727 40.49811935424805 L 103.6963272094727 40.09812164306641 L 103.2963256835938 40.09812164306641 L 1.683499097824097 40.09812164306641 L 1.283499121665955 40.09812164306641 Z" stroke="none"/>
        <path d="M 0.9013753533363342 58.05257797241211 L 104.0793228149414 58.05256652832031 C 104.1182327270508 58.00351333618164 104.1804351806641 57.87887954711914 104.1804351806641 57.69150924682617 L 104.1804351806641 39.33707809448242 C 104.1804351806641 39.14969635009766 104.1182327270508 39.02506256103516 104.0793228149414 38.97600936889648 L 0.9013668298721313 38.97600936889648 C 0.8623605370521545 39.02507781982422 0.8000048398971558 39.14973449707031 0.8000048398971558 39.33707809448242 L 0.8000048398971558 57.69150924682617 C 0.8000048398971558 57.87885284423828 0.8623605370521545 58.00350952148438 0.9013753533363342 58.05257797241211 M 0.8835048079490662 39.69812393188477 L 104.0963363647461 39.69812393188477 L 104.0963363647461 57.33045196533203 L 0.8835048079490662 57.33045196533203 L 0.8835048079490662 39.69812393188477 M 0.8417477011680603 58.85258102416992 C 0.3771048188209534 58.85258102416992 4.830496436625253e-06 58.33242034912109 4.830496436625253e-06 57.69150924682617 L 4.830496436625253e-06 39.33707809448242 C 4.830496436625253e-06 38.69615173339844 0.3771048188209534 38.17600631713867 0.8417477011680603 38.17600631713867 L 104.1386871337891 38.17600631713867 C 104.6039733886719 38.17600631713867 104.9804306030273 38.69615173339844 104.9804306030273 39.33707809448242 L 104.9804306030273 57.69150924682617 C 104.9804306030273 58.33242034912109 104.6039733886719 58.85256576538086 104.1386871337891 58.85256576538086 L 0.8417477011680603 58.85258102416992 Z M 1.683504819869995 40.49812316894531 L 1.683504819869995 56.53044891357422 L 103.2963333129883 56.53044891357422 L 103.2963333129883 40.49812316894531 L 1.683504819869995 40.49812316894531 Z" stroke="none" fill="#4e7bff"/>
      </g>
      <g id="Path_4318" data-name="Path 4318" transform="translate(0 -38.176)" fill="#4e7bff">
        <path d="M 0.8417524695396423 58.45258712768555 C 0.6332324743270874 58.45258712768555 0.4000057876110077 58.12710571289062 0.4000057876110077 57.69150543212891 L 0.4000057876110077 39.33708190917969 C 0.4000057876110077 38.90148162841797 0.6332324743270874 38.57600021362305 0.8417524695396423 38.57600021362305 L 104.1386871337891 38.57600021362305 C 104.3472213745117 38.57600021362305 104.5804443359375 38.90148162841797 104.5804443359375 39.33708190917969 L 104.5804443359375 57.69150543212891 C 104.5804443359375 58.12709426879883 104.3472213745117 58.45256042480469 104.1386871337891 58.45256042480469 L 0.8417524695396423 58.45258712768555 Z M 1.283499121665955 40.09812164306641 L 1.283499121665955 40.49811935424805 L 1.283499121665955 56.53045272827148 L 1.283499121665955 56.93045425415039 L 1.683499097824097 56.93045425415039 L 103.2963256835938 56.93045425415039 L 103.6963272094727 56.93045425415039 L 103.6963272094727 56.53045272827148 L 103.6963272094727 40.49811935424805 L 103.6963272094727 40.09812164306641 L 103.2963256835938 40.09812164306641 L 1.683499097824097 40.09812164306641 L 1.283499121665955 40.09812164306641 Z" stroke="none"/>
        <path d="M 0.9013753533363342 58.05257797241211 L 104.0793228149414 58.05256652832031 C 104.1182327270508 58.00351333618164 104.1804351806641 57.87887954711914 104.1804351806641 57.69150924682617 L 104.1804351806641 39.33707809448242 C 104.1804351806641 39.14969635009766 104.1182327270508 39.02506256103516 104.0793228149414 38.97600936889648 L 0.9013668298721313 38.97600936889648 C 0.8623605370521545 39.02507781982422 0.8000048398971558 39.14973449707031 0.8000048398971558 39.33707809448242 L 0.8000048398971558 57.69150924682617 C 0.8000048398971558 57.87885284423828 0.8623605370521545 58.00350952148438 0.9013753533363342 58.05257797241211 M 0.8835048079490662 39.69812393188477 L 104.0963363647461 39.69812393188477 L 104.0963363647461 57.33045196533203 L 0.8835048079490662 57.33045196533203 L 0.8835048079490662 39.69812393188477 M 0.8417477011680603 58.85258102416992 C 0.3771048188209534 58.85258102416992 4.830496436625253e-06 58.33242034912109 4.830496436625253e-06 57.69150924682617 L 4.830496436625253e-06 39.33707809448242 C 4.830496436625253e-06 38.69615173339844 0.3771048188209534 38.17600631713867 0.8417477011680603 38.17600631713867 L 104.1386871337891 38.17600631713867 C 104.6039733886719 38.17600631713867 104.9804306030273 38.69615173339844 104.9804306030273 39.33707809448242 L 104.9804306030273 57.69150924682617 C 104.9804306030273 58.33242034912109 104.6039733886719 58.85256576538086 104.1386871337891 58.85256576538086 L 0.8417477011680603 58.85258102416992 Z M 1.683504819869995 40.49812316894531 L 1.683504819869995 56.53044891357422 L 103.2963333129883 56.53044891357422 L 103.2963333129883 40.49812316894531 L 1.683504819869995 40.49812316894531 Z" stroke="none" fill="#4e7bff"/>
      </g>
      <g id="Path_4317" data-name="Path 4317" transform="translate(0 -8.31)" fill="#4e7bff">
        <path d="M 104.1386871337891 57.05873489379883 L 0.8417524695396423 57.05873489379883 C 0.6332324743270874 57.05873489379883 0.4000057876110077 56.73325729370117 0.4000057876110077 56.29766845703125 L 0.4000057876110077 29.19244194030762 C 0.4000057876110077 28.75685691833496 0.6332324743270874 28.43138885498047 0.8417524695396423 28.43138885498047 L 104.1386871337891 28.43138885498047 C 104.3472213745117 28.43138885498047 104.5804443359375 28.75685691833496 104.5804443359375 29.19244194030762 L 104.5804443359375 56.29766845703125 C 104.5804443359375 56.73325729370117 104.3472213745117 57.05873489379883 104.1386871337891 57.05873489379883 Z M 1.283499121665955 29.95351028442383 L 1.283499121665955 30.3535099029541 L 1.283499121665955 55.13660430908203 L 1.283499121665955 55.53660202026367 L 1.683499097824097 55.53660202026367 L 103.2963256835938 55.53660202026367 L 103.6963272094727 55.53660202026367 L 103.6963272094727 55.13660430908203 L 103.6963272094727 30.3535099029541 L 103.6963272094727 29.95351028442383 L 103.2963256835938 29.95351028442383 L 1.683499097824097 29.95351028442383 L 1.283499121665955 29.95351028442383 Z" stroke="none"/>
        <path d="M 104.0793151855469 56.65872573852539 C 104.1182327270508 56.60967636108398 104.1804351806641 56.48503875732422 104.1804351806641 56.29767227172852 L 104.1804351806641 29.19244194030762 C 104.1804351806641 29.00507164001465 104.1182327270508 28.88043785095215 104.0793228149414 28.83138465881348 L 0.9013659954071045 28.83138465881348 C 0.8623597025871277 28.88045120239258 0.8000048398971558 29.00509834289551 0.8000048398971558 29.19244194030762 L 0.8000048398971558 56.29767227172852 C 0.8000048398971558 56.48501586914062 0.8623597025871277 56.60966110229492 0.9013659954071045 56.65872573852539 L 104.0793151855469 56.65872573852539 M 0.8835048079490662 29.55349922180176 L 104.0963363647461 29.55349922180176 L 104.0963363647461 55.93661499023438 L 0.8835048079490662 55.93661499023438 L 0.8835048079490662 29.55349922180176 M 104.1386871337891 57.4587287902832 L 0.8417477011680603 57.4587287902832 C 0.3771048188209534 57.4587287902832 4.830496436625253e-06 56.93857192993164 4.830496436625253e-06 56.29767227172852 L 4.830496436625253e-06 29.19244194030762 C 4.830496436625253e-06 28.55152702331543 0.3771048188209534 28.03138542175293 0.8417477011680603 28.03138542175293 L 104.1386871337891 28.03138542175293 C 104.6039733886719 28.03138542175293 104.9804306030273 28.55152702331543 104.9804306030273 29.19244194030762 L 104.9804306030273 56.29767227172852 C 104.9804306030273 56.93857192993164 104.6039733886719 57.4587287902832 104.1386871337891 57.4587287902832 Z M 1.683504819869995 30.3534984588623 L 1.683504819869995 55.13661193847656 L 103.2963333129883 55.13661193847656 L 103.2963333129883 30.3534984588623 L 1.683504819869995 30.3534984588623 Z" stroke="none" fill="#4e7bff"/>
      </g>
      <g id="Path_4342" data-name="Path 4342" transform="translate(-35.084 -115.791)" fill="#4e7bff">
        <path d="M 139.2195129394531 186.6305694580078 L 35.92891311645508 186.6305694580078 C 35.09064483642578 186.6305694580078 34.43400573730469 185.7762908935547 34.43400573730469 184.6857452392578 L 34.43400573730469 117.6637802124023 C 34.43400573730469 116.5726852416992 35.09064483642578 115.7179870605469 35.92891311645508 115.7179870605469 L 139.2195129394531 115.7179870605469 C 140.0577850341797 115.7179870605469 140.7144470214844 116.5726852416992 140.7144470214844 117.6637802124023 L 140.7144470214844 184.6857452392578 C 140.7144470214844 185.7762908935547 140.0577850341797 186.6305694580078 139.2195129394531 186.6305694580078 Z M 37.42383193969727 182.7410125732422 L 137.7245635986328 182.7410125732422 L 137.7245635986328 119.607551574707 L 37.42383193969727 119.607551574707 L 37.42383193969727 182.7410125732422 Z" stroke="none"/>
        <path d="M 139.2195129394531 185.9805603027344 C 139.6865539550781 185.9805603027344 140.0644378662109 185.4005737304688 140.0644378662109 184.6857452392578 L 140.0644378662109 117.6637725830078 C 140.0644378662109 116.9480743408203 139.6865539550781 116.3679885864258 139.2195129394531 116.3679885864258 L 35.92890548706055 116.3679885864258 C 35.4619026184082 116.3679885864258 35.08400344848633 116.9480743408203 35.08400344848633 117.6637725830078 L 35.08400344848633 184.6857452392578 C 35.08400344848633 185.4005737304688 35.4619026184082 185.9805603027344 35.92890548706055 185.9805603027344 L 139.2195129394531 185.9805603027344 M 36.77383422851562 118.9575424194336 L 138.3745574951172 118.9575424194336 L 138.3745574951172 183.3910217285156 L 36.77383422851562 183.3910217285156 L 36.77383422851562 118.9575424194336 M 139.2195129394531 187.2805633544922 L 35.92890548706055 187.2805633544922 C 34.72616195678711 187.2805633544922 33.78400421142578 186.1407775878906 33.78400421142578 184.6857452392578 L 33.78400421142578 117.6637725830078 C 33.78400421142578 116.2081832885742 34.72616195678711 115.067985534668 35.92890548706055 115.067985534668 L 139.2195129394531 115.067985534668 C 140.4222717285156 115.067985534668 141.3644256591797 116.2081832885742 141.3644256591797 117.6637725830078 L 141.3644256591797 184.6857452392578 C 141.3644256591797 186.1407775878906 140.4222717285156 187.2805633544922 139.2195129394531 187.2805633544922 Z M 38.07383346557617 182.0910339355469 L 137.0745544433594 182.0910339355469 L 137.0745544433594 120.2575454711914 L 38.07383346557617 120.2575454711914 L 38.07383346557617 182.0910339355469 Z" stroke="none" fill="#4e7bff"/>
      </g>
    </g>
  </g>
</svg>
